<svg width="42" height="55" viewBox="0 0 42 55" fill="none" xmlns="http://www.w3.org/2000/svg">
<rect width="42" height="55" fill="#F5F5F5"/>
<rect width="1440" height="1166" transform="translate(-819 -318)" fill="#232A31"/>
<rect x="-259" y="-45" width="560" height="206" rx="8" fill="#322F3C"/>
<g opacity="0.3">
<path opacity="0.3" d="M34.8392 12.3156C33.4754 12.3143 32.168 11.7706 31.2037 10.8039C30.2394 9.83719 29.697 8.52642 29.6957 7.15929V4.64753e-07H6.71493C5.83324 -0.000328002 4.96007 0.173456 4.1454 0.511483C3.33072 0.849511 2.59046 1.34515 1.96689 1.97004C1.34332 2.59494 0.848665 3.33687 0.511179 4.15346C0.173693 4.97005 -6.08781e-08 5.84529 0 6.72919V47.307C-6.0878e-08 48.1909 0.173693 49.0662 0.511179 49.8827C0.848665 50.6993 1.34332 51.4413 1.96689 52.0662C2.59046 52.6911 3.33072 53.1867 4.1454 53.5247C4.96007 53.8627 5.83324 54.0365 6.71493 54.0362H34.3028C36.0831 54.0362 37.7904 53.3273 39.0492 52.0653C40.3081 50.8033 41.0153 49.0917 41.0153 47.307V12.3156H34.8392Z" fill="#AB6FFF"/>
</g>
<path d="M41.0153 12.3156H34.8392C33.4755 12.3143 32.168 11.7706 31.2037 10.8039C30.2394 9.83719 29.6971 8.52642 29.6957 7.15929V0L41.0153 12.3156Z" fill="#AB6FFF"/>
<path d="M16.7424 38.5535H16.1911C14.9173 38.5535 13.9037 38.1793 13.1504 37.4308C12.3971 36.6822 12.0205 35.6711 12.0205 34.3975V30.3014C12.0205 28.741 11.401 27.9608 10.1622 27.9608V26.0504C11.3994 26.0504 12.0189 25.2701 12.0205 23.7097V19.6287C12.0205 18.3534 12.3971 17.3415 13.1504 16.5929C13.9037 15.8444 14.9173 15.471 16.1911 15.4727H16.7424V17.3882H16.3657C14.8691 17.3882 14.1208 18.2359 14.1208 19.9313V24.1124C14.1042 25.6128 13.5263 26.5613 12.3872 26.9581V27.0581C13.5097 27.4282 14.0875 28.3518 14.1208 29.8289V34.0799C14.1208 35.7754 14.8691 36.6231 16.3657 36.6231H16.7424V38.5535Z" fill="#AB6FFF"/>
<path d="M24.2755 38.5541V36.6387H24.6521C26.1487 36.6387 26.8971 35.7909 26.8971 34.0955V29.8444C26.9303 28.3674 27.5073 27.4438 28.6281 27.0737V26.9737C27.4907 26.5719 26.9137 25.6234 26.8971 24.128V19.9469C26.8971 18.2515 26.1487 17.4037 24.6521 17.4037H24.2755V15.4883H24.8292C26.1013 15.4883 27.114 15.8617 27.8673 16.6086C28.6207 17.3554 28.9981 18.3673 28.9998 19.6443V23.7254C28.9998 25.2858 29.6192 26.066 30.8581 26.066V27.9814C29.6176 27.9814 28.9981 28.7617 28.9998 30.3221V34.4031C28.9998 35.6784 28.6223 36.6895 27.8673 37.4364C27.1124 38.1832 26.0997 38.5575 24.8292 38.5592L24.2755 38.5541Z" fill="#AB6FFF"/>
<path d="M20.2994 21.5494C21.2127 21.5494 21.9531 20.8073 21.9531 19.8919C21.9531 18.9765 21.2127 18.2344 20.2994 18.2344C19.386 18.2344 18.6456 18.9765 18.6456 19.8919C18.6456 20.8073 19.386 21.5494 20.2994 21.5494Z" fill="#AB6FFF"/>
<path d="M20.2994 28.6666C21.2127 28.6666 21.9531 27.9245 21.9531 27.0091C21.9531 26.0937 21.2127 25.3516 20.2994 25.3516C19.386 25.3516 18.6456 26.0937 18.6456 27.0091C18.6456 27.9245 19.386 28.6666 20.2994 28.6666Z" fill="#AB6FFF"/>
<path d="M20.2994 35.7857C21.2127 35.7857 21.9531 35.0436 21.9531 34.1282C21.9531 33.2128 21.2127 32.4707 20.2994 32.4707C19.386 32.4707 18.6456 33.2128 18.6456 34.1282C18.6456 35.0436 19.386 35.7857 20.2994 35.7857Z" fill="#AB6FFF"/>
</svg>
