<svg width="80" height="49" viewBox="0 0 80 49" fill="none" xmlns="http://www.w3.org/2000/svg">
<path d="M41.9856 21.6599C41.7906 21.4507 41.559 21.2847 41.3041 21.1715C41.0492 21.0583 40.7759 21 40.5 21C40.2241 21 39.9508 21.0583 39.6959 21.1715C39.441 21.2847 39.2094 21.4507 39.0144 21.6599L30.6153 30.6593C30.4203 30.8683 30.2655 31.1165 30.1599 31.3896C30.0543 31.6627 30 31.9554 30 32.251C30 32.5467 30.0543 32.8394 30.1599 33.1125C30.2655 33.3856 30.4203 33.6338 30.6153 33.8428C31.0093 34.265 31.5437 34.5021 32.1009 34.5021C32.3768 34.5021 32.65 34.4439 32.9049 34.3308C33.1598 34.2177 33.3914 34.0518 33.5865 33.8428L38.4002 28.6822V45.7501C38.4002 46.3468 38.6215 46.9191 39.0152 47.341C39.409 47.763 39.9431 48 40.5 48C41.0569 48 41.591 47.763 41.9848 47.341C42.3785 46.9191 42.5998 46.3468 42.5998 45.7501V28.6822L47.4135 33.8428C47.6086 34.0518 47.8402 34.2177 48.0951 34.3308C48.35 34.4439 48.6232 34.5021 48.8991 34.5021C49.175 34.5021 49.4482 34.4439 49.7031 34.3308C49.958 34.2177 50.1896 34.0518 50.3847 33.8428C50.5797 33.6338 50.7345 33.3856 50.8401 33.1125C50.9457 32.8394 51 32.5467 51 32.251C51 31.9554 50.9457 31.6627 50.8401 31.3896C50.7345 31.1165 50.5797 30.8683 50.3847 30.6593L41.9856 21.6599Z" fill="#7310FF"/>
<path d="M79.6798 31.6372C79.675 36.22 77.8706 40.6138 74.6622 43.8549C71.4538 47.096 67.1035 48.9198 62.5654 48.9263H12.7729C13.1792 47.3145 13.1393 45.6209 12.6577 44.0303H62.5654C65.8186 44.0303 68.9385 42.7253 71.2389 40.4022C73.5392 38.0792 74.8316 34.9286 74.8316 31.6434C74.8316 28.3581 73.5392 25.2075 71.2389 22.8845C68.9385 20.5615 65.8186 19.2564 62.5654 19.2564C61.6791 19.2579 60.7954 19.3543 59.9292 19.544L57.2505 20.156L56.996 17.402C56.7045 14.2555 55.3316 11.3113 53.1154 9.07995C50.8993 6.84865 47.9796 5.47106 44.8629 5.18613C41.7462 4.90119 38.6291 5.72685 36.0521 7.51995C33.4752 9.31305 31.601 11.9605 30.7547 15.003L29.9547 17.8733L27.3185 16.5146C26.257 15.9654 25.081 15.68 23.8883 15.6823C21.884 15.6855 19.9627 16.4915 18.546 17.9233C17.1292 19.3551 16.3327 21.296 16.3311 23.3201C16.3307 23.7885 16.3753 24.2558 16.4644 24.7155L17.0341 27.8306L13.9009 27.6041C13.6706 27.6041 13.4827 27.6041 13.2949 27.6041C12.2053 27.5741 11.1209 27.7649 10.1056 28.1653C9.09034 28.5656 8.16479 29.1673 7.38366 29.9349C6.60253 30.7026 5.98165 31.6205 5.5577 32.6345C5.13375 33.6485 4.91532 34.738 4.91532 35.8386C4.91532 36.9393 5.13375 38.0288 5.5577 39.0428C5.98165 40.0568 6.60253 40.9747 7.38366 41.7423C8.16479 42.5099 9.09034 43.1117 10.1056 43.512C11.1209 43.9124 12.2053 44.1031 13.2949 44.0731H13.3373C13.0784 44.9342 13.2931 45.8756 13.2949 46.7754C13.2955 47.5305 13.0417 48.2365 13.2221 48.9692C9.94282 48.9429 6.79438 47.6665 4.40736 45.3956C2.02034 43.1247 0.57098 40.027 0.34953 36.7229C0.12808 33.4187 1.1509 30.152 3.21314 27.577C5.27538 25.0021 8.22479 23.3089 11.4707 22.8366C11.544 20.9689 12.0304 19.1414 12.8943 17.4882C13.7582 15.8351 14.9777 14.3982 16.4632 13.2831C17.9487 12.168 19.6626 11.4028 21.4791 11.0439C23.2957 10.6849 25.1687 10.7412 26.9609 11.2086C28.5133 7.68659 31.1201 4.74475 34.4145 2.79694C37.7089 0.849136 41.5251 -0.00661039 45.3262 0.350089C49.1273 0.706788 52.7221 2.25797 55.6047 4.78543C58.4872 7.31289 60.5126 10.6894 61.3958 14.44C61.7776 14.44 62.1655 14.3971 62.5473 14.3971C67.0801 14.3987 71.4278 16.2136 74.6387 19.4447C77.8496 22.6757 79.6622 27.0597 79.6798 31.6372Z" fill="#7310FF"/>
</svg>
