<svg xmlns="http://www.w3.org/2000/svg" width="72" height="73" viewBox="0 0 72 73" fill="none">
  <path d="M71.5 64.2297C71.5 64.6433 71.3198 65.0873 70.8952 65.5639C70.468 66.0436 69.8147 66.5302 68.9323 67.0095C67.168 67.9678 64.582 68.8465 61.3439 69.5904C54.8756 71.0763 45.915 72 36 72C26.085 72 17.1244 71.0763 10.6561 69.5904C7.41797 68.8465 4.83198 67.9678 3.0677 67.0095C2.18528 66.5302 1.53203 66.0436 1.10475 65.5639C0.680209 65.0873 0.5 64.6433 0.5 64.2297C0.5 63.8162 0.680209 63.3722 1.10475 62.8956C1.53203 62.4159 2.18528 61.9292 3.0677 61.4499C4.83198 60.4917 7.41797 59.613 10.6561 58.8691C17.1244 57.3831 26.085 56.4595 36 56.4595C45.915 56.4595 54.8756 57.3831 61.3439 58.8691C64.582 59.613 67.168 60.4917 68.9323 61.4499C69.8147 61.9292 70.468 62.4159 70.8952 62.8956C71.3198 63.3722 71.5 63.8162 71.5 64.2297Z" fill="#DCE2E9" stroke="#DCE2E9"/>
  <path fill-rule="evenodd" clip-rule="evenodd" d="M13.7566 0.826416H58.4493C59.1473 0.826416 59.8166 1.09618 60.3102 1.57636C60.8037 2.05653 61.0809 2.70779 61.0809 3.38687V63.1376C61.0809 63.8167 60.8037 64.4679 60.3102 64.9481C59.8166 65.4283 59.1473 65.698 58.4493 65.698H13.7566C13.0586 65.698 12.3893 65.4283 11.8958 64.9481C11.4023 64.4679 11.125 63.8167 11.125 63.1376V3.38687C11.125 2.70779 11.4023 2.05653 11.8958 1.57636C12.3893 1.09618 13.0586 0.826416 13.7566 0.826416V0.826416Z" fill="#FBFBFB"/>
  <path d="M19.5776 7.69751H52.6283C52.849 7.69751 53.058 7.78295 53.21 7.93084C53.3615 8.07828 53.444 8.2753 53.444 8.47774V24.453C53.444 24.6555 53.3615 24.8525 53.21 24.9999C53.058 25.1478 52.849 25.2333 52.6283 25.2333H19.5776C19.3569 25.2333 19.1479 25.1478 18.9959 24.9999C18.8443 24.8525 18.7618 24.6555 18.7618 24.453V8.47774C18.7618 8.2753 18.8443 8.07829 18.9959 7.93084C19.1479 7.78295 19.3569 7.69751 19.5776 7.69751ZM19.75 33.183H52.4559C52.7223 33.183 52.9752 33.2861 53.1595 33.4654C53.3434 33.6443 53.444 33.884 53.444 34.1309C53.444 34.3778 53.3434 34.6175 53.1595 34.7964C52.9752 34.9757 52.7223 35.0788 52.4559 35.0788H19.75C19.4835 35.0788 19.2307 34.9757 19.0463 34.7964C18.8625 34.6175 18.7618 34.3778 18.7618 34.1309C18.7618 33.884 18.8625 33.6443 19.0463 33.4654C19.2307 33.2861 19.4835 33.183 19.75 33.183ZM19.75 40.7126H52.4559C52.7224 40.7126 52.9753 40.8158 53.1597 40.9952C53.3437 41.1741 53.4444 41.4139 53.4444 41.6609C53.4444 41.9079 53.3437 42.1476 53.1597 42.3266C52.9753 42.506 52.7224 42.6091 52.4559 42.6091H19.75C19.4834 42.6091 19.2305 42.506 19.0461 42.3266L18.6974 42.685L19.0461 42.3266C18.8622 42.1476 18.7615 41.9079 18.7615 41.6609C18.7615 41.4139 18.8622 41.1741 19.0461 40.9952L18.6981 40.6375L19.0461 40.9952C19.2305 40.8158 19.4834 40.7126 19.75 40.7126Z" fill="#DCE2E9" stroke="#DCE2E9"/>
</svg>