<svg width="42" height="55" viewBox="0 0 42 55" fill="none" xmlns="http://www.w3.org/2000/svg">
<rect width="42" height="55" fill="#F5F5F5"/>
<rect width="1440" height="1166" transform="translate(-819 -318)" fill="white"/>
<rect x="-259" y="-45" width="560" height="206" rx="8" fill="#FCFAFF"/>
<g opacity="0.3">
<path opacity="0.3" d="M34.8392 12.3156C33.4754 12.3143 32.168 11.7706 31.2037 10.8039C30.2394 9.83719 29.697 8.52642 29.6957 7.15929V4.64753e-07H6.71493C5.83324 -0.000328002 4.96007 0.173456 4.1454 0.511483C3.33072 0.849511 2.59046 1.34515 1.96689 1.97004C1.34332 2.59494 0.848665 3.33687 0.511179 4.15346C0.173693 4.97005 -6.08781e-08 5.84529 0 6.72919V47.307C-6.0878e-08 48.1909 0.173693 49.0662 0.511179 49.8827C0.848665 50.6993 1.34332 51.4413 1.96689 52.0662C2.59046 52.6911 3.33072 53.1867 4.1454 53.5247C4.96007 53.8627 5.83324 54.0365 6.71493 54.0362H34.3028C36.0831 54.0362 37.7904 53.3273 39.0492 52.0653C40.3081 50.8033 41.0153 49.0917 41.0153 47.307V12.3156H34.8392Z" fill="#7310FF"/>
</g>
<path d="M41.0153 12.3156H34.8392C33.4755 12.3143 32.168 11.7706 31.2037 10.8039C30.2394 9.83719 29.6971 8.52642 29.6957 7.15929V0L41.0153 12.3156Z" fill="#7310FF"/>
<path d="M16.7424 38.5545H16.1911C14.9173 38.5545 13.9037 38.1803 13.1504 37.4317C12.3971 36.6832 12.0205 35.6721 12.0205 34.3984V30.3024C12.0205 28.742 11.401 27.9618 10.1622 27.9618V26.0513C11.3994 26.0513 12.0189 25.2711 12.0205 23.7107V19.6297C12.0205 18.3544 12.3971 17.3424 13.1504 16.5939C13.9037 15.8454 14.9173 15.472 16.1911 15.4736H16.7424V17.3892H16.3657C14.8691 17.3892 14.1208 18.2369 14.1208 19.9323V24.1133C14.1042 25.6137 13.5263 26.5623 12.3872 26.959V27.0591C13.5097 27.4292 14.0875 28.3528 14.1208 29.8298V34.0809C14.1208 35.7763 14.8691 36.624 16.3657 36.624H16.7424V38.5545Z" fill="#7310FF"/>
<path d="M24.2755 38.5541V36.6387H24.6521C26.1487 36.6387 26.8971 35.7909 26.8971 34.0955V29.8444C26.9303 28.3674 27.5073 27.4438 28.6281 27.0737V26.9737C27.4907 26.5719 26.9137 25.6234 26.8971 24.128V19.9469C26.8971 18.2515 26.1487 17.4037 24.6521 17.4037H24.2755V15.4883H24.8292C26.1013 15.4883 27.114 15.8617 27.8673 16.6086C28.6207 17.3554 28.9981 18.3673 28.9998 19.6443V23.7254C28.9998 25.2858 29.6192 26.066 30.8581 26.066V27.9814C29.6176 27.9814 28.9981 28.7617 28.9998 30.3221V34.4031C28.9998 35.6784 28.6223 36.6895 27.8673 37.4364C27.1124 38.1832 26.0997 38.5575 24.8292 38.5592L24.2755 38.5541Z" fill="#7310FF"/>
<path d="M20.2994 21.5489C21.2127 21.5489 21.9531 20.8068 21.9531 19.8914C21.9531 18.976 21.2127 18.2339 20.2994 18.2339C19.386 18.2339 18.6456 18.976 18.6456 19.8914C18.6456 20.8068 19.386 21.5489 20.2994 21.5489Z" fill="#7310FF"/>
<path d="M20.2994 28.6661C21.2127 28.6661 21.9531 27.924 21.9531 27.0086C21.9531 26.0932 21.2127 25.3511 20.2994 25.3511C19.386 25.3511 18.6456 26.0932 18.6456 27.0086C18.6456 27.924 19.386 28.6661 20.2994 28.6661Z" fill="#7310FF"/>
<path d="M20.2994 35.7852C21.2127 35.7852 21.9531 35.0431 21.9531 34.1277C21.9531 33.2123 21.2127 32.4702 20.2994 32.4702C19.386 32.4702 18.6456 33.2123 18.6456 34.1277C18.6456 35.0431 19.386 35.7852 20.2994 35.7852Z" fill="#7310FF"/>
</svg>
