<svg width="121" height="85" viewBox="0 0 121 85" fill="none" xmlns="http://www.w3.org/2000/svg">
<path fill-rule="evenodd" clip-rule="evenodd" d="M104.263 0C102.489 0.0106223 100.711 0.300323 98.9853 0.874895C98.9674 0.880689 98.9506 0.885517 98.9327 0.892277L82.9219 6.27394C71.8784 -0.207619 58.6336 -1.60397 46.4672 2.44314C46.4236 2.45762 46.378 2.47404 46.3344 2.48756C29.5773 8.12127 17.8331 23.5275 17.1096 40.8246C17.0752 41.6436 17.8727 42.2427 18.6497 41.9815L27.4954 39.0083C27.9081 38.8696 28.2078 38.5109 28.2711 38.0801C30.0074 26.2024 38.2879 16.4038 49.8825 12.5054C49.9171 12.4948 49.9479 12.4842 49.9816 12.4726C60.9082 8.83735 72.6405 11.2148 81.125 17.967C81.1653 17.999 81.219 18.0086 81.2677 17.9923L102.48 10.9101L102.498 10.9043C105.498 9.90679 108.773 11.4663 109.808 14.3865C110.843 17.3125 109.244 20.5137 106.243 21.5247L106.249 21.5421L11.2176 53.4516C7.02342 54.8625 3.63989 57.7846 1.69143 61.683C-0.256029 65.5804 -0.531548 69.9781 0.915421 74.0658C2.36239 78.1534 5.36237 81.4502 9.36235 83.3478C13.3623 85.2463 17.8628 85.5224 22.0719 84.1048L38.0827 78.7222C49.1263 85.2047 62.369 86.6021 74.5354 82.554C74.579 82.5385 74.6246 82.5231 74.6682 82.5096C91.4273 76.8759 103.172 61.4686 103.895 44.1716C103.929 43.3526 103.132 42.7535 102.355 43.0148L93.5092 45.9888C93.0966 46.1275 92.7968 46.4863 92.7336 46.917C90.9962 58.7937 82.7158 68.5933 71.1212 72.4898C71.0875 72.5014 71.0558 72.513 71.0231 72.5246C60.0984 76.1569 48.372 73.7833 39.8885 67.0369C39.8483 67.0049 39.7946 66.9953 39.7459 67.0115L18.5238 74.086C18.5238 74.086 18.5129 74.0899 18.506 74.0918C15.507 75.0894 12.2305 73.5308 11.1968 70.6106C10.1602 67.6837 11.7608 64.4805 14.7657 63.4695L109.787 31.5455C116.657 29.2356 120.984 22.953 121 16.2387V16.1807C120.997 14.4377 120.704 12.6676 120.089 10.9304C118.641 6.84272 115.641 3.54593 111.641 1.64839C109.358 0.564916 106.908 0.0125537 104.446 0H104.263Z" fill="url(#paint0_linear_1025_1556)"/>
<defs>
<linearGradient id="paint0_linear_1025_1556" x1="107.897" y1="2.11028e-06" x2="14.853" y2="75.8452" gradientUnits="userSpaceOnUse">
<stop stop-color="#B453DF"/>
<stop offset="1" stop-color="#761FC5"/>
</linearGradient>
</defs>
</svg>
