<svg width="840" height="224" viewBox="0 0 840 224" fill="none" xmlns="http://www.w3.org/2000/svg">
<rect width="840" height="224" fill="#F5F5F5"/>
<rect width="1440" height="1024" transform="translate(-420 -600)" fill="white"/>
<rect width="48" height="48" rx="16" fill="#352542"/>
<path d="M40.1238 34.7439C40.1518 34.6878 40.1798 34.6317 40.2079 34.5756C40.2079 34.5476 40.2079 34.5476 40.2079 34.5196C40.2079 34.4635 40.2359 34.4074 40.2359 34.3794C40.2359 34.3513 40.2359 34.3513 40.2359 34.3233C40.2359 34.2672 40.2359 34.1831 40.2079 34.127C40.1798 34.0709 40.1518 34.0148 40.1238 33.9587V33.9307L24.7291 8.02059C24.5889 7.76822 24.3085 7.59998 24 7.59998C23.6916 7.59998 23.4392 7.76822 23.271 8.02059L7.87633 33.9027V33.9307C7.84828 33.9868 7.82024 34.0429 7.7922 34.0989C7.76416 34.155 7.76416 34.2392 7.76416 34.2952C7.76416 34.3233 7.76416 34.3233 7.76416 34.3513C7.76416 34.4074 7.76416 34.4635 7.7922 34.4915C7.7922 34.5196 7.7922 34.5196 7.7922 34.5476C7.82024 34.6037 7.82024 34.6598 7.87633 34.7159L7.90437 34.7439C7.93241 34.8 7.96045 34.8561 8.01653 34.8841C8.04457 34.9121 8.07261 34.9402 8.10065 34.9682C8.1287 34.9963 8.15674 35.0243 8.18478 35.0243C8.21282 35.0524 8.2689 35.0524 8.29694 35.0804C8.32498 35.0804 8.35303 35.1084 8.38107 35.1084C8.46519 35.1365 8.52127 35.1365 8.6054 35.1365H39.3666C39.4508 35.1365 39.5068 35.1365 39.591 35.1084C39.619 35.1084 39.6471 35.0804 39.6751 35.0804C39.7312 35.0524 39.7592 35.0524 39.8153 35.0243C39.8433 34.9963 39.8714 34.9963 39.8994 34.9682C39.9275 34.9402 39.9555 34.9121 39.9835 34.8841C40.0396 34.828 40.0677 34.8 40.0957 34.7439C40.0957 34.7719 40.0957 34.7719 40.1238 34.7439ZM24 20.4429L28.9073 28.3505H19.0928L24 20.4429ZM23.1588 18.6202L16.9897 28.5748L10.9609 32.0239L23.1588 11.5257V18.6202ZM17.8029 30.061H30.1691L36.198 33.5101H11.7741L17.8029 30.061ZM31.0103 28.5748L24.8413 18.6202V11.5257L37.0392 32.0239L31.0103 28.5748Z" fill="white"/>
<rect x="88" width="48" height="48" rx="16" fill="#1E1E1E"/>
<path d="M112 44C123.046 44 132 35.0457 132 24C132 12.9543 123.046 4 112 4C100.954 4 92 12.9543 92 24C92 35.0457 100.954 44 112 44Z" fill="black"/>
<path d="M112 42.2459C122.077 42.2459 130.246 34.0769 130.246 24C130.246 13.923 122.077 5.75403 112 5.75403C101.923 5.75403 93.7539 13.923 93.7539 24C93.7539 34.0769 101.923 42.2459 112 42.2459Z" fill="black" stroke="white" stroke-width="1.66667"/>
<path fill-rule="evenodd" clip-rule="evenodd" d="M111.906 28.0743H118.604L111.908 16.4718V16.4731V9.44055L125.031 31.8079H111.906V28.0743Z" fill="#0B76FF"/>
<path fill-rule="evenodd" clip-rule="evenodd" d="M111.905 28.0743L111.906 31.8079H98.7793L111.903 9.44055L111.904 16.4731L111.903 16.4718L105.207 28.0743H111.905Z" fill="#24C1FF"/>
<path fill-rule="evenodd" clip-rule="evenodd" d="M111.906 19.3517V26.7109L107.754 26.7186L111.906 19.3517Z" fill="#39FFF2"/>
<path fill-rule="evenodd" clip-rule="evenodd" d="M111.906 19.3517L116.058 26.7186L111.906 26.7109V19.3517Z" fill="#00E2C2"/>
<path fill-rule="evenodd" clip-rule="evenodd" d="M95.6995 17.0751L111.906 23.7722V24.7093L95.6995 20.6914V17.0751Z" fill="url(#paint0_linear_784_5311)"/>
<path fill-rule="evenodd" clip-rule="evenodd" d="M128.112 14.2665L111.906 23.7721V24.0291L128.112 17.3428V14.2665Z" fill="url(#paint1_linear_784_5311)"/>
<path fill-rule="evenodd" clip-rule="evenodd" d="M128.099 23.5041L111.906 24.7083V24.4419L128.099 20.4232V23.5041Z" fill="url(#paint2_linear_784_5311)"/>
<path fill-rule="evenodd" clip-rule="evenodd" d="M128.112 17.472L111.906 24.0446V24.442L128.112 20.2897V17.472Z" fill="url(#paint3_linear_784_5311)"/>
<rect x="176" width="48" height="48" rx="16" fill="white"/>
<path fill-rule="evenodd" clip-rule="evenodd" d="M212.219 35.0758C212.124 34.9704 211.961 34.9635 211.857 35.0617L211.854 35.067C211.75 35.1653 211.748 35.3287 211.85 35.4287L217.517 41.0117L212.219 35.0758Z" fill="black"/>
<path fill-rule="evenodd" clip-rule="evenodd" d="M210.081 26.3274L210.075 26.3327C209.972 26.431 209.972 26.5943 210.072 26.6943L215.982 32.5073L210.442 26.3415C210.348 26.2361 210.184 26.2291 210.081 26.3274Z" fill="black"/>
<path fill-rule="evenodd" clip-rule="evenodd" d="M205.249 25.167L201.583 21.5843C201.528 23.4749 201.23 27.3793 200.475 29.2053C200.463 29.2335 200.446 29.2626 200.433 29.291C200.967 29.6311 202.09 30.2882 202.537 30.2882C203.095 30.2867 204.207 29.6701 204.61 29.2837C204.959 28.9455 205.329 28.2675 205.687 27.6118C205.976 27.0828 206.274 26.5357 206.585 26.1161C206.771 25.8653 206.943 25.6815 207.111 25.5538C207.46 25.2915 208.036 25.0803 208.645 24.8568C209.461 24.5579 210.385 24.2189 210.667 23.7587C210.948 23.2987 210.783 21.7034 210.669 20.9447C209.899 21.0286 206.772 21.2612 204.519 19.8143C203.446 19.125 201.866 17.618 201.135 16.8998C201.397 18.441 201.569 20.0342 201.586 21.1048L205.249 25.167Z" fill="#FECD0F"/>
<path fill-rule="evenodd" clip-rule="evenodd" d="M205.01 35.8499L205.007 35.8534C204.903 35.9517 204.902 36.1167 205.004 36.215L210.692 41.8243L205.372 35.8639C205.277 35.7586 205.114 35.7516 205.01 35.8499Z" fill="black"/>
<path fill-rule="evenodd" clip-rule="evenodd" d="M206.104 30.7815C206.041 30.7815 205.98 30.8043 205.93 30.8516C205.827 30.95 205.825 31.1149 205.929 31.2151L209.925 35.0652L206.294 30.8693C206.245 30.8112 206.174 30.7815 206.104 30.7815Z" fill="black"/>
<path fill-rule="evenodd" clip-rule="evenodd" d="M200.382 34.8442V35.2937L201.236 34.6398C201.314 34.5804 201.418 34.5663 201.508 34.6034C201.599 34.6404 201.661 34.7208 201.675 34.8179C201.703 35.2616 201.809 36.4576 201.978 36.8188C202.136 37.1582 202.712 37.8281 203.597 38.7046C203.623 38.7296 203.65 38.7249 203.664 38.7197C203.678 38.7145 203.703 38.7007 203.707 38.6652C203.747 38.4606 203.779 38.2159 203.768 38.1524C203.564 37.0237 201.85 34.1584 201.509 33.5956C201.487 33.5599 201.456 33.531 201.417 33.5106L199.986 32.7575V33.3233L200.382 33.6414V34.8442Z" fill="#FECD0F"/>
<path fill-rule="evenodd" clip-rule="evenodd" d="M197.877 37.588H197.875C197.772 37.6863 197.77 37.8514 197.872 37.9514L202.024 42L198.24 37.6074C198.146 37.4984 197.981 37.4897 197.877 37.588Z" fill="black"/>
<mask id="mask0_784_5311" style="mask-type:alpha" maskUnits="userSpaceOnUse" x="184" y="6" width="18" height="29">
<path d="M198.2 22.8469L198.594 23.3009L198.273 23.3448C197.753 23.4159 196.94 23.5947 196.763 23.7696C196.523 24.007 196.29 25.0562 196.199 25.6617L196.192 25.7073L196.163 25.7437C196.007 25.944 195.467 26.5989 195.083 26.6151C195.076 26.6154 195.069 26.6154 195.063 26.6154C194.82 26.6154 194.541 26.43 194.214 26.0547C193.903 26.0352 193.162 25.9373 192.902 25.4558C192.751 25.1767 193.027 24.5551 193.165 24.2769C193.161 24.2408 193.158 24.2044 193.158 24.1679C193.164 23.7946 193.548 23.0795 193.899 22.9033C194.151 22.7755 194.528 22.8161 194.927 22.8587C195.28 22.8963 195.679 22.9393 195.832 22.8249C196.061 22.6542 196.17 21.6248 196.172 20.9827L196.174 20.5148L197.035 21.506C197.198 21.1016 197.376 20.5823 197.358 20.384C197.333 20.1096 196.887 19.3643 196.612 18.9594L196.902 18.7619C196.98 18.8769 197.666 19.8976 197.708 20.3527C197.739 20.7076 197.418 21.5065 197.292 21.8021L197.962 22.5736C198.289 22.1027 198.844 21.2329 198.864 20.8698C198.89 20.3925 198.319 19.1796 197.822 18.2856C197.794 18.2328 197.778 18.2054 197.777 18.2035L198.079 18.0254C198.079 18.0254 198.098 18.0576 198.13 18.1179C198.393 18.5904 199.252 20.1951 199.215 20.8891C199.185 21.4074 198.459 22.4802 198.2 22.8469ZM191.954 16.7941C191.811 17.0629 191.648 17.3261 191.429 17.5561C191.395 17.5895 191.36 17.6247 191.323 17.6562C191.481 17.6247 191.667 17.6387 191.818 17.8036C191.976 17.9775 191.947 18.6218 191.743 18.7377C191.446 18.9027 190.614 18.2514 190.393 18.0723C190.217 18.1162 190.042 18.1513 189.863 18.1776C189.764 18.1917 189.676 18.1197 189.668 18.0214C189.661 17.9283 189.731 17.8475 189.824 17.8388C190.058 17.8194 190.293 17.7844 190.519 17.7317C190.66 17.6984 190.798 17.6597 190.927 17.6053C191.055 17.5544 191.169 17.4877 191.281 17.3946C191.502 17.2155 191.69 16.9821 191.861 16.7381C192.029 16.4922 192.182 16.2323 192.313 15.9603C192.215 16.2465 192.094 16.5238 191.954 16.7941ZM187.087 15.6863C186.084 15.6863 185.272 14.8735 185.272 13.8728C185.272 12.8704 186.084 12.0574 187.087 12.0574C187.262 12.0574 187.433 12.0838 187.594 12.1312C187.531 11.903 187.496 11.6624 187.496 11.4149C187.496 9.89446 188.727 8.66385 190.247 8.66385C191.766 8.66385 192.996 9.89446 192.996 11.4149C192.996 12.9335 191.766 14.1642 190.247 14.1642C189.756 14.1642 189.296 14.0343 188.897 13.8096C188.899 13.8307 188.901 13.8517 188.901 13.8728C188.901 14.8735 188.088 15.6863 187.087 15.6863ZM201.236 21.4168H201.411L201.285 21.2939L201.411 21.1728L201.236 21.1745C201.224 19.9979 201.011 18.1298 200.693 16.4155C200.565 15.7208 200.429 15.1059 200.298 14.6365C199.293 11.0349 196.594 8.20796 192.699 6.67656C191.525 6.21591 188.837 6.21403 187.884 6.8227C183.278 9.75982 184.555 14.4501 184.974 15.9914C185.384 17.4997 186.614 19.4816 188.731 20.1038L190.119 20.2352L188.937 20.3378C188.963 20.4509 188.943 20.5868 188.9 20.7205L189.559 20.7497L188.844 20.8684C188.785 21.0078 188.714 21.1289 188.67 21.1891C188.528 21.3793 188.285 21.5896 188.028 21.8123C187.714 22.0849 187.357 22.3939 187.246 22.6294C187.209 22.7069 187.173 22.7963 187.134 22.9023C186.909 23.5409 186.783 24.5053 186.781 25.6166C186.778 27.0021 186.968 28.4297 187.266 29.2541C187.612 30.2144 189.292 31.6966 190.212 32.1892C190.446 32.3138 190.789 32.4208 191.231 32.507L191.196 32.6817L191.199 32.6788L191.233 32.5088C192.176 32.6951 193.376 32.7464 194.093 32.7164C194.736 32.6893 196.664 32.1434 197.273 31.9669L196.835 30.8954L197.16 30.7624L198.7 34.5264L200.031 34.6512V33.81L198.816 32.8352L198.253 30.2073L198.597 30.1336L198.798 31.0748C199.189 30.5656 199.781 29.7692 200.053 29.2701C200.09 29.2026 200.124 29.1339 200.15 29.0705C200.843 27.3967 201.178 23.6239 201.234 21.4966L201.236 21.4168Z" fill="white"/>
</mask>
<g mask="url(#mask0_784_5311)">
<path fill-rule="evenodd" clip-rule="evenodd" d="M198.2 22.8469L198.594 23.3009L198.273 23.3448C197.753 23.4159 196.94 23.5947 196.763 23.7696C196.523 24.007 196.29 25.0562 196.199 25.6617L196.192 25.7073L196.163 25.7437C196.007 25.944 195.467 26.5989 195.083 26.6151C195.076 26.6154 195.069 26.6154 195.063 26.6154C194.82 26.6154 194.541 26.43 194.214 26.0547C193.903 26.0352 193.162 25.9373 192.902 25.4558C192.751 25.1767 193.027 24.5551 193.165 24.2769C193.161 24.2408 193.158 24.2044 193.158 24.1679C193.164 23.7946 193.548 23.0795 193.899 22.9033C194.151 22.7755 194.528 22.8161 194.927 22.8587C195.28 22.8963 195.679 22.9393 195.832 22.8249C196.061 22.6542 196.17 21.6248 196.172 20.9827L196.174 20.5148L197.035 21.506C197.198 21.1016 197.376 20.5823 197.358 20.384C197.333 20.1096 196.887 19.3643 196.612 18.9594L196.902 18.7619C196.98 18.8769 197.666 19.8976 197.708 20.3527C197.739 20.7076 197.418 21.5065 197.292 21.8021L197.962 22.5736C198.289 22.1027 198.844 21.2329 198.864 20.8698C198.89 20.3925 198.319 19.1796 197.822 18.2856C197.794 18.2328 197.778 18.2054 197.777 18.2035L198.079 18.0254C198.079 18.0254 198.098 18.0576 198.13 18.1179C198.393 18.5904 199.252 20.1951 199.215 20.8891C199.185 21.4074 198.459 22.4802 198.2 22.8469ZM191.954 16.7941C191.811 17.0629 191.648 17.3261 191.429 17.5561C191.395 17.5895 191.36 17.6247 191.323 17.6562C191.481 17.6247 191.667 17.6387 191.818 17.8036C191.976 17.9775 191.947 18.6218 191.743 18.7377C191.446 18.9027 190.614 18.2514 190.393 18.0723C190.217 18.1162 190.042 18.1513 189.863 18.1776C189.764 18.1917 189.676 18.1197 189.668 18.0214C189.661 17.9283 189.731 17.8475 189.824 17.8388C190.058 17.8194 190.293 17.7844 190.519 17.7317C190.66 17.6984 190.798 17.6597 190.927 17.6053C191.055 17.5544 191.169 17.4877 191.281 17.3946C191.502 17.2155 191.69 16.9821 191.861 16.7381C192.029 16.4922 192.182 16.2323 192.313 15.9603C192.215 16.2465 192.094 16.5238 191.954 16.7941ZM187.087 15.6863C186.084 15.6863 185.272 14.8735 185.272 13.8728C185.272 12.8704 186.084 12.0574 187.087 12.0574C187.262 12.0574 187.433 12.0838 187.594 12.1312C187.531 11.903 187.496 11.6624 187.496 11.4149C187.496 9.89446 188.727 8.66385 190.247 8.66385C191.766 8.66385 192.996 9.89446 192.996 11.4149C192.996 12.9335 191.766 14.1642 190.247 14.1642C189.756 14.1642 189.296 14.0343 188.897 13.8096C188.899 13.8307 188.901 13.8517 188.901 13.8728C188.901 14.8735 188.088 15.6863 187.087 15.6863ZM201.236 21.4168H201.411L201.285 21.2939L201.411 21.1728L201.236 21.1745C201.224 19.9979 201.011 18.1298 200.693 16.4155C200.565 15.7208 200.429 15.1059 200.298 14.6365C199.293 11.0349 196.594 8.20796 192.699 6.67656C191.525 6.21591 188.837 6.21403 187.884 6.8227C183.278 9.75982 184.555 14.4501 184.974 15.9914C185.384 17.4997 186.614 19.4816 188.731 20.1038L190.119 20.2352L188.937 20.3378C188.963 20.4509 188.943 20.5868 188.9 20.7205L189.559 20.7497L188.844 20.8684C188.785 21.0078 188.714 21.1289 188.67 21.1891C188.528 21.3793 188.285 21.5896 188.028 21.8123C187.714 22.0849 187.357 22.3939 187.246 22.6294C187.209 22.7069 187.173 22.7963 187.134 22.9023C186.909 23.5409 186.783 24.5053 186.781 25.6166C186.778 27.0021 186.968 28.4297 187.266 29.2541C187.612 30.2144 189.292 31.6966 190.212 32.1892C190.446 32.3138 190.789 32.4208 191.231 32.507L191.196 32.6817L191.199 32.6788L191.233 32.5088C192.176 32.6951 193.376 32.7464 194.093 32.7164C194.736 32.6893 196.664 32.1434 197.273 31.9669L196.835 30.8954L197.16 30.7624L198.7 34.5264L200.031 34.6512V33.81L198.816 32.8352L198.253 30.2073L198.597 30.1336L198.798 31.0748C199.189 30.5656 199.781 29.7692 200.053 29.2701C200.09 29.2026 200.124 29.1339 200.15 29.0705C200.843 27.3967 201.178 23.6239 201.234 21.4966L201.236 21.4168Z" fill="url(#paint4_linear_784_5311)"/>
</g>
<mask id="mask1_784_5311" style="mask-type:alpha" maskUnits="userSpaceOnUse" x="190" y="32" width="3" height="4">
<path d="M190.386 32.6464C190.555 33.2924 190.863 34.3344 191.115 34.6571C191.363 34.9716 192.298 35.5168 192.854 35.8182V33.8109C192.547 33.8262 191.999 33.833 191.772 33.7121C191.535 33.5838 191.221 33.072 191.084 32.8355C190.818 32.7806 190.584 32.7174 190.386 32.6464Z" fill="white"/>
</mask>
<g mask="url(#mask1_784_5311)">
<path fill-rule="evenodd" clip-rule="evenodd" d="M190.386 32.6464C190.555 33.2924 190.864 34.3344 191.116 34.6571C191.363 34.9716 192.298 35.5168 192.854 35.8182V33.8109C192.547 33.8262 191.999 33.833 191.772 33.7121C191.536 33.5838 191.221 33.072 191.084 32.8355C190.818 32.7806 190.584 32.7174 190.386 32.6464Z" fill="#356C00"/>
</g>
<path fill-rule="evenodd" clip-rule="evenodd" d="M196.042 23.1062C195.779 23.303 195.347 23.2566 194.889 23.2078C194.713 23.189 194.523 23.1688 194.362 23.1688C194.236 23.1688 194.128 23.1813 194.057 23.217C193.841 23.3254 193.514 23.8958 193.509 24.1709C193.509 24.2085 193.514 24.2489 193.524 24.288L193.524 24.2918C193.619 24.7215 194.137 25.3952 194.307 25.6165C194.34 25.6596 194.381 25.7127 194.429 25.7674C194.823 26.2364 195.016 26.2627 195.068 26.2644C195.213 26.2583 195.587 25.9036 195.859 25.5632C195.907 25.2548 196.14 23.8923 196.516 23.5201C196.759 23.2796 197.473 23.1228 197.909 23.0465L196.509 21.4368C196.477 21.9983 196.373 22.8597 196.042 23.1062Z" fill="#FECD0F"/>
<path fill-rule="evenodd" clip-rule="evenodd" d="M193.917 33.7994H193.205V35.4818L195.527 37.7822L193.917 33.7994Z" fill="#FECD0F"/>
<path fill-rule="evenodd" clip-rule="evenodd" d="M193.212 25.2905C193.321 25.4856 193.615 25.6011 193.926 25.6602C193.718 25.3909 193.49 25.0715 193.337 24.7703C193.24 25.0137 193.185 25.2265 193.212 25.2905Z" fill="#FECD0F"/>
<path fill-rule="evenodd" clip-rule="evenodd" d="M187.877 11.4149C187.877 10.6863 188.465 10.0982 189.194 10.0982C189.921 10.0982 190.511 10.6863 190.511 11.4149C190.511 12.1417 189.921 12.7317 189.194 12.7317C188.465 12.7317 187.877 12.1417 187.877 11.4149ZM186.852 14.8085C186.336 14.8085 185.916 14.389 185.916 13.8728C185.916 13.3549 186.336 12.9353 186.852 12.9353C187.37 12.9353 187.789 13.3549 187.789 13.8728C187.789 14.389 187.37 14.8085 186.852 14.8085ZM190.247 14.1642C191.766 14.1642 192.997 12.9335 192.997 11.4149C192.997 9.89449 191.766 8.66388 190.247 8.66388C188.727 8.66388 187.496 9.89449 187.496 11.4149C187.496 11.6625 187.531 11.903 187.594 12.1312C187.433 12.0839 187.263 12.0574 187.087 12.0574C186.085 12.0574 185.272 12.8704 185.272 13.8728C185.272 14.8735 186.085 15.6864 187.087 15.6864C188.088 15.6864 188.901 14.8735 188.901 13.8728C188.901 13.8517 188.899 13.8307 188.897 13.8096C189.296 14.0344 189.756 14.1642 190.247 14.1642Z" fill="white"/>
<path fill-rule="evenodd" clip-rule="evenodd" d="M191.281 17.3945C191.169 17.4876 191.055 17.5543 190.927 17.6053C190.798 17.6596 190.66 17.6983 190.519 17.7316C190.293 17.7843 190.058 17.8194 189.824 17.8387C189.731 17.8475 189.661 17.9283 189.668 18.0213C189.676 18.1196 189.764 18.1916 189.863 18.1776C190.042 18.1512 190.217 18.1161 190.393 18.0722C190.461 18.0547 190.528 18.0372 190.595 18.0178C190.744 17.9722 190.893 17.9195 191.039 17.8492C191.143 17.8001 191.237 17.7316 191.323 17.6561C191.36 17.6246 191.395 17.5894 191.429 17.5561C191.648 17.326 191.811 17.0628 191.954 16.7941C192.094 16.5238 192.215 16.2464 192.313 15.9602C192.182 16.2323 192.029 16.4922 191.861 16.738C191.69 16.982 191.502 17.2155 191.281 17.3945Z" fill="black"/>
<path fill-rule="evenodd" clip-rule="evenodd" d="M190.595 18.018C190.528 18.0374 190.461 18.0549 190.393 18.0724C190.614 18.2515 191.446 18.9028 191.743 18.7378C191.947 18.6219 191.977 17.9777 191.819 17.8038C191.668 17.6388 191.482 17.6248 191.324 17.6563C191.238 17.7318 191.143 17.8004 191.039 17.8494C190.893 17.9197 190.744 17.9724 190.595 18.018Z" fill="#CA1117"/>
<path fill-rule="evenodd" clip-rule="evenodd" d="M190.51 11.415C190.51 10.6864 189.921 10.0983 189.194 10.0983C188.465 10.0983 187.877 10.6864 187.877 11.415C187.877 12.1417 188.465 12.7317 189.194 12.7317C189.921 12.7317 190.51 12.1417 190.51 11.415Z" fill="black"/>
<path fill-rule="evenodd" clip-rule="evenodd" d="M186.852 12.9354C186.336 12.9354 185.916 13.3551 185.916 13.873C185.916 14.3891 186.336 14.8086 186.852 14.8086C187.37 14.8086 187.789 14.3891 187.789 13.873C187.789 13.3551 187.37 12.9354 186.852 12.9354Z" fill="black"/>
<path fill-rule="evenodd" clip-rule="evenodd" d="M185.225 22.4596C185.087 22.4674 184.997 22.5131 184.949 22.5999C184.801 22.8703 185.055 23.5096 185.343 24.0177L185.354 24.0383C185.361 24.0502 185.366 24.0604 185.372 24.068C185.393 24.1016 185.401 24.1183 185.401 24.1183L185.244 24.1969C185.243 24.1954 185.237 24.184 185.227 24.1666C185.222 24.1606 185.212 24.1435 185.201 24.1232L185.191 24.1068C184.907 23.6454 184.5 23.166 184.217 23.2061C184.027 23.2322 183.913 23.5009 183.85 23.7215C183.828 23.7974 183.952 23.9654 184.042 24.0877C184.119 24.1928 184.192 24.2921 184.221 24.3793C184.251 24.4697 184.26 24.5979 184.268 24.734C184.278 24.895 184.29 25.0777 184.342 25.1547C184.453 25.3147 184.759 25.627 184.966 25.627C184.967 25.627 184.968 25.627 184.97 25.627C185.033 25.6263 185.165 25.4712 185.245 25.3325L185.476 24.9265L185.408 25.3888C185.38 25.5798 185.394 25.7882 185.438 25.8172C185.678 25.9804 186.158 25.7734 186.43 25.6198C186.43 25.6186 186.43 25.6172 186.43 25.6158C186.432 24.5201 186.554 23.5583 186.772 22.8847C186.608 22.8039 186.196 22.6053 186.031 22.5603C185.838 22.5065 185.428 22.4501 185.225 22.4596Z" fill="#FECD0F"/>
<path fill-rule="evenodd" clip-rule="evenodd" d="M200.053 29.2701C199.781 29.7692 199.189 30.5656 198.798 31.0748L198.596 30.1336L198.253 30.2073L198.816 32.8352L200.031 33.81V34.6512L198.7 34.5264L197.16 30.7624L196.835 30.8954L197.273 31.9669C196.664 32.1434 194.735 32.6893 194.093 32.7164C193.376 32.7464 192.176 32.6951 191.233 32.5088L191.199 32.6788L191.196 32.6817L191.23 32.507C190.789 32.4208 190.446 32.3138 190.212 32.1892C189.292 31.6966 187.612 30.2144 187.266 29.2541C186.968 28.4297 186.778 27.0021 186.781 25.6166C186.783 24.5053 186.909 23.5409 187.134 22.9023C187.173 22.7963 187.209 22.7069 187.246 22.6294C187.357 22.3939 187.713 22.0849 188.028 21.8123C188.285 21.5896 188.528 21.3793 188.67 21.1891C188.714 21.1289 188.785 21.0078 188.844 20.8684L189.559 20.7497L188.9 20.7205C188.943 20.5868 188.963 20.4509 188.937 20.3378L190.119 20.2352L188.73 20.1038C186.614 19.4816 185.384 17.4997 184.974 15.9914C184.554 14.4501 183.278 9.75982 187.884 6.8227C188.837 6.21403 191.525 6.21591 192.699 6.67656C196.594 8.20796 199.293 11.0349 200.298 14.6365C200.429 15.1059 200.565 15.7208 200.693 16.4155C201.011 18.1298 201.224 19.9979 201.236 21.1745L201.411 21.1728L201.285 21.2939L201.411 21.4168H201.236L201.234 21.4966C201.178 23.6239 200.843 27.3967 200.15 29.0705C200.124 29.1339 200.09 29.2026 200.053 29.2701ZM199.986 32.7574L201.417 33.5105C201.456 33.5309 201.487 33.5598 201.509 33.5955C201.85 34.1583 203.564 37.0236 203.768 38.1523C203.779 38.2158 203.747 38.4605 203.707 38.6651C203.703 38.7006 203.678 38.7144 203.664 38.7196C203.65 38.7248 203.623 38.7295 203.597 38.7045C202.712 37.828 202.136 37.1581 201.978 36.8187C201.809 36.4575 201.703 35.2615 201.675 34.8178C201.661 34.7207 201.599 34.6404 201.508 34.6033C201.418 34.5662 201.314 34.5803 201.236 34.6397L200.382 35.2936V33.6413L199.986 33.3232V32.7574ZM191.773 33.712C191.999 33.8328 192.547 33.8261 192.854 33.8107V35.818C192.298 35.5167 191.363 34.9714 191.116 34.6569C190.864 34.3343 190.555 33.2922 190.386 32.6462C190.584 32.7173 190.818 32.7804 191.084 32.8353C191.221 33.0718 191.536 33.5836 191.773 33.712ZM186.43 25.6158C186.43 25.6171 186.43 25.6185 186.43 25.6197C186.158 25.7733 185.678 25.9803 185.438 25.8172C185.394 25.7881 185.379 25.5797 185.408 25.3887L185.476 24.9264L185.244 25.3324C185.165 25.4712 185.033 25.6263 184.97 25.6269C184.968 25.6269 184.967 25.6269 184.966 25.6269C184.759 25.6269 184.453 25.3146 184.342 25.1547C184.29 25.0776 184.278 24.8949 184.268 24.7339C184.26 24.5978 184.251 24.4696 184.221 24.3792C184.192 24.2921 184.119 24.1927 184.042 24.0877C183.952 23.9653 183.828 23.7974 183.85 23.7214C183.913 23.5008 184.027 23.2321 184.217 23.2061C184.5 23.1659 184.907 23.6454 185.191 24.1067L185.201 24.1232C185.212 24.1434 185.222 24.1605 185.227 24.1665C185.237 24.184 185.243 24.1953 185.244 24.1968L185.401 24.1182C185.401 24.1182 185.393 24.1015 185.372 24.0679C185.366 24.0604 185.361 24.0501 185.354 24.0383L185.343 24.0176C185.055 23.5095 184.801 22.8702 184.949 22.5998C184.997 22.513 185.087 22.4673 185.225 22.4595C185.428 22.45 185.838 22.5064 186.031 22.5602C186.196 22.6052 186.608 22.8038 186.772 22.8846C186.554 23.5583 186.432 24.52 186.43 25.6158ZM204.519 19.8143C206.772 21.2611 209.899 21.0285 210.669 20.9446C210.782 21.7033 210.948 23.2986 210.666 23.7586C210.385 24.2188 209.461 24.5578 208.645 24.8567C208.036 25.0803 207.46 25.2914 207.111 25.5537C206.943 25.6814 206.77 25.8653 206.584 26.116C206.274 26.5356 205.976 27.0827 205.687 27.6117C205.329 28.2674 204.959 28.9454 204.61 29.2836C204.207 29.6701 203.095 30.2866 202.537 30.2881C202.09 30.2881 200.967 29.631 200.433 29.2909C200.446 29.2625 200.463 29.2334 200.474 29.2052C201.23 27.3792 201.527 23.4748 201.583 21.5842L205.249 25.1669L201.586 21.1047C201.569 20.0341 201.397 18.4409 201.135 16.8997C201.866 17.6179 203.446 19.1249 204.519 19.8143ZM193.205 33.7994H193.917L195.527 37.7822L193.205 35.4818V33.7994ZM202.537 30.6393C203.205 30.6373 204.402 29.9692 204.853 29.5365C205.241 29.1608 205.608 28.49 205.995 27.7798C206.278 27.2614 206.571 26.725 206.867 26.3249C207.032 26.1015 207.182 25.9409 207.323 25.8339C207.629 25.6033 208.182 25.4007 208.766 25.1864C209.678 24.8521 210.621 24.5063 210.966 23.942C211.393 23.2443 211.032 20.977 210.989 20.7209L210.961 20.5518L210.791 20.5758C210.755 20.5811 207.13 21.0737 204.708 19.5189C203.431 18.6981 201.33 16.6024 201.028 16.2981C200.902 15.6159 200.766 15.0092 200.636 14.542C199.6 10.8318 196.827 7.92253 192.827 6.34978C191.694 5.90505 188.827 5.80401 187.695 6.52676C182.871 9.60273 184.199 14.4808 184.635 16.0836C185.067 17.6716 186.364 19.7567 188.6 20.4299C188.612 20.5238 188.509 20.8149 188.388 20.9801C188.269 21.1389 188.041 21.337 187.798 21.547C187.441 21.8567 187.071 22.177 186.928 22.4797C186.895 22.5493 186.863 22.6293 186.829 22.7171C186.649 22.6289 186.252 22.4386 186.078 22.391C185.871 22.3335 185.44 22.2728 185.216 22.2843C185.015 22.2955 184.873 22.3733 184.795 22.5156C184.681 22.7248 184.732 23.0407 184.841 23.3544C184.639 23.1491 184.411 23.0007 184.193 23.0322C183.965 23.0636 183.793 23.2792 183.681 23.6735C183.636 23.8322 183.77 24.0149 183.9 24.1917C183.966 24.281 184.034 24.3734 184.054 24.435C184.078 24.5041 184.085 24.6265 184.093 24.7448C184.105 24.9372 184.118 25.136 184.197 25.2538C184.279 25.3715 184.653 25.8109 184.972 25.8025C185.06 25.8015 185.147 25.7384 185.219 25.663C185.227 25.7854 185.257 25.9079 185.34 25.9628C185.433 26.0264 185.545 26.0514 185.663 26.0514C185.931 26.0514 186.232 25.9224 186.432 25.8183C186.446 27.1771 186.64 28.5544 186.936 29.3732C187.306 30.3993 188.977 31.8966 189.977 32.4588C190.066 32.8241 190.466 34.3958 190.839 34.8735C191.231 35.372 192.775 36.176 192.949 36.2659L193.205 36.3977V35.9762L195.413 38.1634C195.473 38.2242 195.553 38.2556 195.633 38.2556C195.692 38.2556 195.752 38.2383 195.805 38.2029C195.931 38.1198 195.979 37.9639 195.923 37.8242L194.154 33.4483H193.205V33.4341L193.016 33.4489C192.657 33.4771 192.086 33.4813 191.939 33.4029C191.855 33.3577 191.7 33.1542 191.548 32.9193C192.264 33.029 193.059 33.0756 193.679 33.0756C193.834 33.0756 193.979 33.0726 194.108 33.0672C194.811 33.0375 196.829 32.4623 197.407 32.2939L198.455 34.8563L200.031 35.0038V35.4585C200.031 35.5621 200.089 35.6547 200.182 35.7005C200.276 35.7463 200.385 35.7347 200.466 35.6716L201.336 35.0054C201.367 35.4317 201.466 36.5527 201.659 36.9674C201.885 37.4496 202.704 38.3138 203.35 38.9534C203.429 39.0327 203.534 39.0749 203.641 39.0749C203.688 39.0749 203.735 39.0669 203.781 39.0505C203.934 38.9966 204.039 38.8628 204.054 38.7179C204.075 38.611 204.142 38.25 204.114 38.0906C203.904 36.9301 202.297 34.2171 201.808 33.4126C201.753 33.323 201.675 33.2495 201.581 33.1999L200.064 32.4018C199.971 32.3548 199.863 32.3587 199.775 32.4129C199.687 32.4668 199.634 32.5604 199.634 32.6633V33.0415L199.133 32.6394L198.894 31.5242C199.287 31.0207 199.916 30.1908 200.267 29.6017C200.72 29.8895 201.954 30.6393 202.537 30.6393Z" fill="black"/>
<path fill-rule="evenodd" clip-rule="evenodd" d="M196.516 23.52C196.141 23.8922 195.907 25.2547 195.859 25.5631C195.587 25.9035 195.214 26.2582 195.068 26.2643C195.016 26.2627 194.823 26.2364 194.429 25.7673C194.382 25.7126 194.34 25.6595 194.307 25.6164C194.137 25.3951 193.619 24.7214 193.525 24.2917L193.524 24.288C193.514 24.2488 193.509 24.2084 193.509 24.1708C193.514 23.8958 193.841 23.3253 194.057 23.2169C194.128 23.1812 194.236 23.1687 194.363 23.1687C194.523 23.1687 194.713 23.1889 194.889 23.2077C195.347 23.2566 195.78 23.3029 196.042 23.1061C196.373 22.8596 196.477 21.9982 196.509 21.4368L197.91 23.0464C197.473 23.1227 196.759 23.2796 196.516 23.52ZM193.212 25.2904C193.186 25.2264 193.239 25.0136 193.333 24.7702C193.48 25.0714 193.699 25.3908 193.9 25.6601C193.601 25.601 193.317 25.4855 193.212 25.2904ZM198.08 18.0254L197.777 18.2035C197.778 18.2054 197.794 18.2328 197.822 18.2856C198.319 19.1796 198.89 20.3925 198.864 20.8698C198.844 21.2329 198.289 22.1027 197.963 22.5736L197.293 21.8021C197.418 21.5065 197.739 20.7076 197.708 20.3527C197.667 19.8976 196.981 18.8769 196.903 18.7619L196.612 18.9594C196.887 19.3643 197.333 20.1096 197.358 20.384C197.376 20.5823 197.198 21.1016 197.035 21.506L196.174 20.5148L196.173 20.9827C196.171 21.6248 196.061 22.6542 195.832 22.8249C195.68 22.9393 195.28 22.8963 194.927 22.8587C194.528 22.816 194.151 22.7755 193.899 22.9033C193.549 23.0795 193.164 23.7946 193.158 24.1679C193.158 24.2044 193.161 24.2408 193.166 24.2769C193.027 24.5551 192.751 25.1767 192.902 25.4558C193.163 25.9373 193.903 26.0352 194.215 26.0547C194.542 26.43 194.82 26.6154 195.063 26.6154C195.07 26.6154 195.076 26.6154 195.083 26.6151C195.468 26.5988 196.007 25.944 196.164 25.7437L196.192 25.7073L196.199 25.6617C196.29 25.0562 196.523 24.007 196.763 23.7696C196.94 23.5947 197.753 23.4159 198.273 23.3448L198.595 23.3009L198.2 22.8469C198.459 22.4802 199.186 21.4073 199.215 20.8891C199.252 20.1951 198.393 18.5904 198.131 18.1179C198.099 18.0576 198.08 18.0254 198.08 18.0254Z" fill="black"/>
<rect x="264" width="48" height="48" rx="16" fill="black"/>
<path d="M292.9 9.0013C291.804 8.36953 290.528 8 289.169 8H281.731C283.793 8 285.45 9.66883 285.45 11.7191V19.1692V22.9002H289.169C290.528 22.9002 291.804 22.5307 292.888 21.8989C293.711 21.4222 294.426 20.8023 295.01 20.0633C296.011 18.7878 296.619 17.1905 296.619 15.4501C296.619 12.6966 295.129 10.2887 292.9 9.0013Z" fill="#D85111"/>
<path d="M295.022 20.0633C294.438 20.8023 293.723 21.4222 292.9 21.8989C291.804 22.5307 290.528 22.9002 289.181 22.9002H285.45V19.1812V11.7191C285.45 9.66883 283.781 8 281.731 8C279.669 8 278 9.66883 278 11.7191V19.1692V22.9002V34.0695V37.8005H281.719H291.029C291.672 37.8005 292.292 37.7409 292.888 37.6098C297.144 36.7515 300.339 32.9847 300.339 28.4789C300.35 24.7717 298.169 21.5652 295.022 20.0633Z" fill="white"/>
<rect x="352" width="48" height="48" rx="16" fill="#2F2B32"/>
<path fill-rule="evenodd" clip-rule="evenodd" d="M369.787 21.4468L376.002 15.232L382.222 21.4521L385.838 17.8361L376.002 8L366.171 17.8308L369.787 21.4468ZM359.999 24.0017L363.614 20.3867L367.229 24.0017L363.614 27.6168L359.999 24.0017ZM376.001 32.774L369.787 26.5592L366.165 30.1699L366.171 30.1752L376.001 40.006L385.838 30.1699L382.222 26.5539L376.001 32.774ZM384.77 24.0043L388.385 20.3892L392 24.0043L388.385 27.6193L384.77 24.0043ZM376.001 20.3338L379.671 24.003L376.001 27.6776L372.332 24.0083V23.9977L372.977 23.3533L373.291 23.0444L376.001 20.3338Z" fill="#F3BA2F"/>
<rect x="440" width="48" height="48" rx="16" fill="#F3BA2F"/>
<path d="M467.334 35.8965V39.931L463.817 42L460.403 39.931V35.8965L463.817 37.9655L467.334 35.8965ZM448.507 21.931L451.921 24V30.931L457.817 34.4483V38.4827L448.507 33V21.931ZM479.128 21.931V33L469.714 38.4827V34.4483L475.61 30.931V24L479.128 21.931ZM469.714 16.4483L473.231 18.5172V22.5517L467.334 26.069V33.1034L463.921 35.1724L460.507 33.1034V26.069L454.403 22.5517V18.5172L457.921 16.4483L463.817 19.9655L469.714 16.4483ZM454.403 25.4483L457.817 27.5172V31.5517L454.403 29.4827V25.4483ZM473.231 25.4483V29.4827L469.817 31.5517V27.5172L473.231 25.4483ZM451.921 12.931L455.438 15L451.921 17.069V21.1034L448.507 19.0345V15L451.921 12.931ZM475.714 12.931L479.231 15V19.0345L475.714 21.1034V17.069L472.3 15L475.714 12.931ZM463.817 12.931L467.334 15L463.817 17.069L460.403 15L463.817 12.931ZM463.817 6L473.231 11.4828L469.817 13.5517L463.921 10.0345L457.921 13.5517L454.507 11.4828L463.817 6Z" fill="white"/>
<rect x="528" width="48" height="48" rx="16" fill="#F0B90B"/>
<path d="M552.011 8.06738L555.958 12.098L546.018 22.0085L542.07 18.0727L552.011 8.06738Z" fill="white" stroke="white" stroke-width="2"/>
<path d="M558.003 14.0422L561.951 18.0728L546.018 33.9581L542.07 30.0223L558.003 14.0422Z" fill="white" stroke="white" stroke-width="2"/>
<path d="M540.026 20.0169L543.973 24.0475L540.026 27.9833L536.078 24.0475L540.026 20.0169Z" fill="white" stroke="white" stroke-width="2"/>
<path d="M563.996 20.0169L567.944 24.0475L552.011 39.9327L548.063 35.997L563.996 20.0169Z" fill="white" stroke="white" stroke-width="2"/>
<rect x="616" width="48" height="48" rx="16" fill="#003F6B"/>
<path d="M640.109 20.7636C639.016 20.7636 637.947 21.0878 637.038 21.6951C636.129 22.3025 635.421 23.1657 635.002 24.1757C634.584 25.1857 634.474 26.297 634.688 27.3692C634.901 28.4414 635.427 29.4263 636.2 30.1993C636.973 30.9723 637.958 31.4987 639.03 31.712C640.103 31.9252 641.214 31.8158 642.224 31.3974C643.234 30.9791 644.097 30.2706 644.705 29.3617C645.312 28.4527 645.636 27.3841 645.636 26.2909C645.637 25.5649 645.494 24.8459 645.216 24.1751C644.939 23.5043 644.532 22.8948 644.018 22.3814C643.505 21.8681 642.895 21.461 642.225 21.1834C641.554 20.9058 640.835 20.7631 640.109 20.7636Z" fill="#2EAA8F"/>
<path d="M640.109 12.5818C638.205 12.5742 636.321 12.9708 634.582 13.7455V18.4364C636.34 17.1976 638.464 16.585 640.612 16.6967C642.76 16.8085 644.808 17.6382 646.429 19.0529C648.049 20.4675 649.148 22.3852 649.548 24.4985C649.949 26.6119 649.628 28.7986 648.638 30.7081C647.648 32.6177 646.046 34.1396 644.087 35.0298C642.129 35.9201 639.929 36.1273 637.839 35.6181C635.749 35.1089 633.891 33.9128 632.562 32.2216C631.233 30.5304 630.51 28.4419 630.509 26.2909V8H626.4V26.2909C626.4 29.0023 627.204 31.6528 628.71 33.9073C630.217 36.1617 632.358 37.9188 634.863 38.9565C637.368 39.9941 640.124 40.2655 642.783 39.7366C645.443 39.2076 647.886 37.9019 649.803 35.9847C651.72 34.0674 653.026 31.6247 653.555 28.9654C654.084 26.3061 653.812 23.5497 652.775 21.0447C651.737 18.5397 649.98 16.3986 647.725 14.8922C645.471 13.3858 642.82 12.5818 640.109 12.5818Z" fill="white"/>
<rect x="704" width="48" height="48" rx="16" fill="#F5B300"/>
<path d="M719.567 11.035C720.449 11.2754 721.33 11.4356 722.212 11.676C723.093 11.9164 723.974 12.0766 724.856 12.317C725.096 12.3971 725.176 12.317 725.256 12.0766C725.577 10.7145 725.897 9.43248 726.218 8.07035C726.298 7.82997 726.378 7.74985 726.618 7.82997C727.42 8.07035 728.141 8.2306 728.942 8.39085C729.182 8.47097 729.182 8.5511 729.102 8.71135C728.782 9.99335 728.461 11.3555 728.141 12.6375C728.141 12.7176 728.141 12.7977 728.061 12.958C728.702 13.1182 729.423 13.2785 730.064 13.4387C730.144 13.4387 730.224 13.2785 730.304 13.1984C730.545 12.1567 730.785 11.1952 731.105 10.1536C731.186 9.8331 731.266 9.5126 731.346 9.1921C731.346 9.03185 731.426 8.95173 731.586 9.03185C732.387 9.27223 733.189 9.43248 734.07 9.67285C734.15 9.67285 734.15 9.75298 734.23 9.75298C733.99 10.7946 733.75 11.7561 733.509 12.7176C733.429 13.1182 733.349 13.5189 733.189 13.9195C733.109 14.1599 733.189 14.24 733.429 14.3201C734.31 14.7207 735.192 15.1214 736.073 15.522C736.874 16.0027 737.596 16.6437 738.156 17.445C738.878 18.6469 738.958 19.9289 738.637 21.2109C738.397 22.0923 738.076 22.8935 737.435 23.5345C736.955 24.0153 736.314 24.3358 735.673 24.5761C735.592 24.5761 735.512 24.6563 735.352 24.6563C735.673 24.8966 735.993 25.0569 736.314 25.2973C737.275 26.0184 737.916 26.8998 738.237 28.0215C738.397 28.9029 738.317 29.8644 738.076 30.7458C737.756 31.8675 737.355 32.829 736.634 33.7104C735.753 34.752 734.631 35.3129 733.349 35.4732C731.666 35.7135 730.064 35.5533 728.461 35.3129C728.221 35.2328 728.061 35.3129 727.981 35.5533C727.66 36.8353 727.34 38.1974 727.019 39.4794C726.939 39.7999 726.939 39.8801 726.538 39.7198C725.817 39.5595 725.016 39.3192 724.295 39.1589C724.054 39.0788 724.054 38.9987 724.135 38.8384C724.455 37.4763 724.776 36.1142 725.176 34.8322C725.176 34.6719 725.256 34.5918 725.096 34.5117C724.455 34.3514 723.814 34.1912 723.093 34.0309C722.933 34.752 722.692 35.4732 722.532 36.1943C722.372 36.9154 722.131 37.6365 721.971 38.3577C721.891 38.5179 721.891 38.598 721.651 38.5179C720.849 38.2775 720.048 38.1173 719.247 37.957C719.006 37.8769 719.006 37.7968 719.087 37.6365C719.407 36.2744 719.728 34.9123 720.128 33.6303C720.128 33.5502 720.208 33.47 720.208 33.3098C718.365 32.829 716.523 32.3483 714.6 31.8675C714.76 31.547 714.84 31.3067 715 30.9862C715.321 30.265 715.641 29.5439 715.882 28.9029C715.962 28.6625 716.042 28.6625 716.282 28.6625C716.843 28.8228 717.484 28.983 718.045 29.0631C718.686 29.2234 719.167 28.9029 719.247 28.342C720.288 24.2556 721.33 20.1693 722.292 16.0027C722.452 15.3617 722.051 14.6406 721.33 14.4002C720.609 14.1599 719.888 13.9996 719.247 13.8394C719.087 13.8394 719.006 13.7592 719.087 13.599C719.327 12.7176 719.567 11.7561 719.808 10.8747C719.487 11.1151 719.487 11.1151 719.567 11.035ZM723.654 30.8259C723.734 30.8259 723.814 30.906 723.814 30.906C725.096 31.2265 726.458 31.6272 727.82 31.7073C728.782 31.7874 729.663 31.7874 730.545 31.4669C732.067 30.9862 732.708 28.983 731.827 27.701C731.426 27.06 730.785 26.6594 730.144 26.2588C728.702 25.4575 727.019 25.137 725.417 24.8165C725.176 24.7364 725.176 24.8165 725.096 25.0569C724.936 25.8581 724.695 26.5793 724.535 27.3805C724.215 28.5023 723.974 29.624 723.654 30.8259ZM730.384 22.6531C730.545 22.6531 730.945 22.573 731.266 22.4929C732.788 22.1724 733.589 20.4096 732.788 19.0475C732.387 18.3264 731.666 17.8456 730.945 17.5251C729.823 17.0444 728.702 16.804 727.5 16.4835C727.259 16.4034 727.179 16.4835 727.099 16.7239C726.699 18.4065 726.298 20.009 725.817 21.6916C725.737 21.8519 725.817 21.932 725.977 22.0121C726.298 22.0923 726.538 22.1724 726.859 22.2525C728.061 22.4128 729.102 22.6531 730.384 22.6531Z" fill="white"/>
<rect x="792" width="48" height="48" rx="16" fill="#4BCF51"/>
<path d="M802.32 16.3178C803.204 16.0852 804.047 15.7833 804.931 15.5508C805.814 15.3183 806.657 15.0164 807.541 14.7839C807.789 14.7331 807.818 14.6236 807.768 14.3754C807.364 13.0355 807.001 11.765 806.597 10.4251C806.546 10.1769 806.576 10.0674 806.824 10.0166C807.638 9.82418 808.343 9.60239 809.117 9.34055C809.365 9.28975 809.405 9.35914 809.416 9.53799C809.779 10.8085 810.183 12.1484 810.546 13.4189C810.586 13.4883 810.626 13.5577 810.637 13.7365C811.272 13.5548 811.977 13.333 812.612 13.1513C812.682 13.1112 812.671 12.9324 812.7 12.8229C812.387 11.8006 812.115 10.8478 811.872 9.78545L811.599 8.83258C811.519 8.69379 811.548 8.58434 811.727 8.57361C812.541 8.38115 813.315 8.11931 814.199 7.88679C814.268 7.84673 814.308 7.91612 814.378 7.87605C814.69 8.89832 814.963 9.85119 815.235 10.8041C815.366 11.1911 815.497 11.5781 815.559 12.0052C815.61 12.2534 815.719 12.2827 815.967 12.2319L818.858 11.9507C819.792 11.9664 820.737 12.161 821.624 12.5745C822.849 13.2548 823.56 14.3249 823.923 15.5954C824.156 16.4789 824.279 17.3331 824.044 18.2087C823.868 18.8654 823.473 19.4635 823.038 19.9922C822.969 20.0322 822.939 20.1417 822.801 20.2218C823.198 20.2697 823.556 20.2483 823.954 20.2962C825.147 20.4399 826.143 20.8827 826.981 21.6939C827.561 22.3771 827.972 23.2499 828.205 24.1334C828.488 25.2651 828.622 26.2981 828.438 27.4219C828.196 28.7647 827.504 29.8113 826.474 30.5911C825.137 31.6406 823.669 32.303 822.161 32.8961C821.913 32.9469 821.814 33.0964 821.865 33.3447C822.229 34.6152 822.632 35.955 822.996 37.2255C823.087 37.5432 823.127 37.6126 822.7 37.6741C821.995 37.8959 821.181 38.0883 820.476 38.3101C820.228 38.3609 820.188 38.2915 820.177 38.1127C819.774 36.7728 819.37 35.4329 819.076 34.1223C818.996 33.9836 819.025 33.8741 818.846 33.8848C818.211 34.0666 817.576 34.2483 816.871 34.4701C817.093 35.1747 817.245 35.9194 817.467 36.624C817.689 37.3287 817.841 38.0734 818.063 38.778C818.074 38.9569 818.114 39.0263 817.866 39.0771C817.052 39.2695 816.278 39.5314 815.504 39.7932C815.255 39.844 815.215 39.7746 815.205 39.5958C814.801 38.2559 814.398 36.916 814.104 35.6054C814.063 35.536 814.093 35.4266 814.013 35.2878C812.176 35.7929 810.34 36.298 808.434 36.8432C808.413 36.4855 808.362 36.2372 808.34 35.8796C808.257 35.0948 808.174 34.31 808.062 33.6347C808.011 33.3865 808.081 33.3464 808.289 33.2262C808.855 33.0846 809.49 32.9028 810.016 32.6918C810.651 32.5101 810.907 31.9921 810.696 31.4663C809.555 27.4066 808.414 23.3469 807.163 19.2578C806.982 18.6226 806.274 18.1984 805.529 18.3508C804.785 18.5032 804.08 18.725 803.445 18.9067C803.306 18.9868 803.197 18.9575 803.186 18.7786C802.953 17.8951 802.681 16.9423 802.448 16.0588C802.291 16.4272 802.291 16.4272 802.32 16.3178ZM815.755 31.414C815.824 31.3739 815.933 31.4033 815.933 31.4033C817.204 31.0398 818.584 30.7057 819.803 30.094C820.676 29.6827 821.44 29.242 822.043 28.5237C823.121 27.3462 822.674 25.291 821.27 24.6214C820.602 24.2666 819.847 24.2401 819.092 24.2137C817.442 24.2409 815.824 24.8047 814.276 25.3283C814.028 25.3791 814.068 25.4485 814.119 25.6968C814.381 26.4708 814.533 27.2155 814.795 27.9895C815.078 29.1212 815.431 30.2129 815.755 31.414ZM817.497 20.9709C817.636 20.8908 817.943 20.6211 818.18 20.3915C819.338 19.3527 819.151 17.4255 817.776 16.6465C817.068 16.2223 816.203 16.1665 815.419 16.2495C814.207 16.394 813.115 16.7467 811.914 17.0701C811.666 17.1209 811.636 17.2304 811.687 17.4786C812.182 19.1361 812.636 20.7242 813.061 22.4218C813.072 22.6007 813.181 22.63 813.36 22.6192C813.678 22.5284 813.926 22.4776 814.243 22.3867C815.364 21.9246 816.387 21.6119 817.497 20.9709Z" fill="white"/>
<rect y="88" width="48" height="48" rx="16" fill="#F7931A"/>
<path fill-rule="evenodd" clip-rule="evenodd" d="M25.9125 111.722C27.3436 111.375 28.4262 110.402 28.7248 108.4C29.1366 105.666 27.123 104.208 24.3637 103.244L25.2801 99.5379L23.0929 98.9892L22.2001 102.597C21.6265 102.452 21.0367 102.316 20.4498 102.182L21.3485 98.5487L19.1628 98L18.2465 101.705C17.77 101.596 17.3022 101.488 16.8492 101.374L16.8522 101.363L13.8369 100.604L13.2413 103.013C13.2413 103.013 14.8636 103.388 14.8283 103.41C15.7152 103.634 15.8726 104.236 15.8432 104.715L14.7989 108.937C14.8764 108.957 14.9526 108.981 15.0269 109.011L14.7945 108.953L13.3324 114.868C13.2221 115.145 12.9456 115.562 12.3249 115.409C12.347 115.44 10.7364 115.009 10.7364 115.009L9.63623 117.592L12.4823 118.308C12.803 118.389 13.1194 118.472 13.4328 118.554L13.4334 118.554L13.4335 118.555C13.6373 118.608 13.8398 118.661 14.0414 118.713L13.1148 122.462L15.2975 123.011L16.2153 119.303C16.7941 119.462 17.3746 119.613 17.9568 119.759L17.0434 123.451L19.229 124L20.1557 120.26C23.8857 120.964 26.695 120.656 27.8952 117.175C28.8616 114.372 27.8702 112.765 25.9125 111.722ZM35.8172 120.527L36.6188 117.289L39.8297 118.097L40.3636 115.938L37.1527 115.131L37.9529 111.894L35.8128 111.356L35.0112 114.593L31.8004 113.786L31.2664 115.944L34.4773 116.751L33.6772 119.99L35.8172 120.527ZM23.6851 115.645C24.3342 113.019 20.5574 112.166 18.7103 111.749C18.5026 111.702 18.3193 111.661 18.1694 111.623L16.9442 116.587C17.067 116.617 17.211 116.656 17.3722 116.699C19.1572 117.174 23.054 118.213 23.688 115.643L23.6851 115.645ZM20.2957 104.949C21.8357 105.292 24.9902 105.994 24.4005 108.384C23.8214 110.722 20.5703 109.844 19.0854 109.443C18.9523 109.407 18.8334 109.375 18.7318 109.35L19.8453 104.846C19.9699 104.877 20.1226 104.911 20.2957 104.949Z" fill="white"/>
<rect x="88" y="88" width="48" height="48" rx="16" fill="#272D63"/>
<path d="M118.322 98.8L117.272 103.063C120.518 104.197 122.908 105.898 122.441 109.048C122.306 110.005 121.976 110.964 121.295 111.688C120.712 112.313 119.8 112.645 119.021 112.9C118.088 113.216 117.112 113.387 116.126 113.408C115.466 113.408 114.825 113.389 114.165 113.33C113.097 113.251 112.007 113.154 110.959 112.92C110.629 112.842 110.317 112.783 110.026 112.703L108.607 118.433L107.771 121.562L106.721 125.847L104.138 125.201L105.208 120.879C104.605 120.723 103.982 120.547 103.362 120.389L100 119.55L101.282 116.594C101.282 116.594 103.187 117.105 103.166 117.066C103.906 117.241 104.216 116.752 104.351 116.44L105.809 110.572L106.489 107.854L107.267 104.725C107.305 104.177 107.111 103.474 106.062 103.219C106.101 103.2 104.177 102.75 104.177 102.75L104.857 99.973L108.412 100.873C108.958 101.008 109.501 101.127 110.065 101.263L111.115 97L113.698 97.645L112.669 101.83C113.348 101.988 114.049 102.143 114.728 102.319L115.738 98.1535L118.322 98.8ZM118.109 114.25C118.828 114.132 119.702 113.839 120.323 113.584C120.343 113.564 120.383 113.565 120.401 113.545C121.742 114.738 122.383 116.674 121.508 119.158C120.128 123.187 116.807 123.518 112.415 122.678L111.347 127L108.782 126.355L109.773 122.229L109.811 122.092L110.59 118.923C112.882 119.432 115.972 119.764 116.554 117.377C116.866 116.107 116.263 115.187 115.291 114.523L116.302 114.463C117.022 114.426 117.389 114.367 118.109 114.249V114.25ZM117.35 109.007C118.109 105.937 113.405 105.273 111.95 104.883L110.666 110.083C112.124 110.455 116.632 111.941 117.35 109.007Z" fill="#FEFEFE"/>
<rect x="176" y="88" width="48" height="48" rx="16" fill="#F09242"/>
<path d="M211.354 101.555L210.366 102.544C212.724 105.123 214.032 108.492 214.032 111.987C214.032 115.482 212.724 118.85 210.366 121.43L211.354 122.418C213.977 119.573 215.434 115.845 215.434 111.975C215.434 108.105 213.977 104.377 211.354 101.532V101.555Z" fill="#5A5564"/>
<path d="M190.567 101.641C193.146 99.2821 196.515 97.9741 200.01 97.9741C203.505 97.9741 206.874 99.2821 209.453 101.641L210.442 100.652C207.596 98.0292 203.868 96.5729 199.998 96.5729C196.129 96.5729 192.4 98.0292 189.555 100.652L190.567 101.641Z" fill="#5A5564"/>
<path d="M189.641 121.44C187.285 118.861 185.979 115.494 185.979 112.002C185.979 108.509 187.285 105.142 189.641 102.563L188.653 101.575C186.03 104.42 184.573 108.148 184.573 112.018C184.573 115.888 186.03 119.616 188.653 122.461L189.641 121.44Z" fill="#5A5564"/>
<path d="M209.439 122.353C206.86 124.711 203.492 126.019 199.996 126.019C196.501 126.019 193.133 124.711 190.553 122.353L189.565 123.341C192.41 125.964 196.138 127.42 200.008 127.42C203.878 127.42 207.606 125.964 210.451 123.341L209.439 122.353Z" fill="#5A5564"/>
<path d="M206.241 108.702C206.043 106.639 204.264 105.947 202.014 105.736V102.896H200.274V105.684C199.816 105.684 199.348 105.684 198.884 105.684V102.896H197.157V105.756H193.628V107.618C193.628 107.618 194.913 107.595 194.893 107.618C195.125 107.592 195.358 107.658 195.542 107.8C195.726 107.943 195.848 108.152 195.882 108.382V116.211C195.877 116.292 195.856 116.372 195.819 116.445C195.783 116.518 195.733 116.583 195.671 116.636C195.61 116.69 195.539 116.731 195.462 116.757C195.385 116.783 195.304 116.794 195.223 116.787C195.246 116.807 193.958 116.787 193.958 116.787L193.628 118.867H197.124V121.773H198.864V118.909H200.254V121.759H201.997V118.886C204.936 118.708 206.986 117.983 207.243 115.232C207.45 113.018 206.409 112.03 204.745 111.631C205.757 111.133 206.383 110.211 206.241 108.702ZM203.803 114.89C203.803 117.051 200.099 116.804 198.92 116.804V112.969C200.099 112.972 203.803 112.633 203.803 114.89ZM202.996 109.486C202.996 111.463 199.905 111.222 198.923 111.222V107.736C199.905 107.736 202.996 107.427 202.996 109.486Z" fill="white"/>
<path d="M199.997 130C196.437 129.999 192.957 128.943 189.998 126.965C187.038 124.987 184.732 122.176 183.37 118.887C182.008 115.598 181.651 111.979 182.346 108.488C183.041 104.996 184.755 101.789 187.272 99.2721C189.789 96.7549 192.996 95.0407 196.488 94.346C199.979 93.6514 203.598 94.0076 206.887 95.3695C210.176 96.7315 212.987 99.0381 214.965 101.998C216.943 104.957 217.999 108.437 218 111.997C218 114.361 217.535 116.702 216.63 118.887C215.726 121.071 214.4 123.056 212.728 124.728C211.056 126.4 209.071 127.726 206.887 128.63C204.702 129.535 202.361 130 199.997 130ZM199.997 95.4036C196.717 95.4062 193.512 96.3811 190.786 98.2049C188.06 100.029 185.936 102.62 184.683 105.65C183.429 108.681 183.102 112.015 183.743 115.232C184.384 118.448 185.964 121.402 188.284 123.721C190.603 126.039 193.558 127.618 196.775 128.258C199.992 128.898 203.326 128.569 206.356 127.315C209.386 126.06 211.976 123.935 213.799 121.209C215.622 118.482 216.595 115.276 216.596 111.997C216.597 109.817 216.168 107.658 215.334 105.644C214.5 103.63 213.278 101.8 211.736 100.259C210.194 98.7183 208.364 97.4962 206.35 96.663C204.335 95.8299 202.177 95.4019 199.997 95.4036Z" fill="#282138"/>
<rect x="264" y="88" width="48" height="48" rx="16" fill="#FB2EA3"/>
<path d="M294.776 108.188C294.431 110.521 293.137 111.65 291.422 112.045C293.777 113.272 294.978 115.154 293.835 118.416C292.417 122.467 289.049 122.808 284.571 121.961L283.481 126.318L280.855 125.663L281.928 121.365C281.228 121.192 280.53 121.01 279.834 120.821L278.758 125.14L276.133 124.487L277.222 120.121C276.608 119.964 275.985 119.797 275.348 119.638L271.93 118.787L273.234 115.778C273.234 115.778 275.17 116.294 275.143 116.255C275.887 116.439 276.217 115.954 276.348 115.632L278.065 108.744L278.343 108.813C278.254 108.778 278.163 108.749 278.07 108.726L279.294 103.81C279.326 103.251 279.135 102.548 278.071 102.281C278.112 102.254 276.162 101.807 276.162 101.807L276.861 99.0014L280.484 99.9057L280.481 99.9209C281.025 100.055 281.588 100.184 282.159 100.314L283.237 96L285.863 96.6535L284.808 100.884C285.512 101.045 286.221 101.207 286.911 101.38L287.96 97.1778L290.586 97.8313L289.51 102.147C292.827 103.29 295.253 105.003 294.776 108.188ZM288.773 116.604C289.624 113.203 283.913 112.323 282.132 111.878L280.69 117.66C282.471 118.103 287.963 119.867 288.774 116.604H288.773ZM289.586 108.141C290.358 105.045 285.583 104.357 284.1 103.986L282.793 109.231C284.275 109.601 288.846 111.109 289.586 108.141ZM297.23 119.735C297.103 119.718 296.973 119.726 296.849 119.759C296.725 119.792 296.609 119.85 296.507 119.928C296.309 120.097 296.175 120.329 296.127 120.584C296.096 120.726 296.085 120.872 296.096 121.017C296.109 121.183 296.163 121.342 296.251 121.483C296.343 121.634 296.488 121.777 296.686 121.911C296.884 122.043 297.157 122.15 297.507 122.23C297.695 122.276 297.89 122.297 298.089 122.296C298.289 122.296 298.475 122.264 298.645 122.2C298.825 122.136 298.985 122.027 299.111 121.883C299.236 121.739 299.321 121.565 299.359 121.378C299.395 121.244 299.404 121.105 299.386 120.968C299.368 120.831 299.322 120.699 299.253 120.58C299.113 120.346 298.884 120.166 298.563 120.042L298.797 119.03C299.374 119.262 299.779 119.595 300.013 120.025C300.247 120.457 300.295 120.969 300.159 121.562C300.089 121.89 299.952 122.201 299.756 122.473C299.579 122.714 299.353 122.913 299.093 123.059C298.833 123.204 298.544 123.291 298.247 123.315C297.92 123.345 297.59 123.321 297.271 123.244C296.943 123.171 296.628 123.048 296.336 122.879C296.068 122.725 295.834 122.519 295.648 122.271C295.467 122.026 295.344 121.743 295.286 121.443C295.225 121.099 295.238 120.746 295.324 120.408C295.383 120.151 295.476 119.904 295.602 119.673C295.726 119.448 295.876 119.258 296.057 119.103C296.236 118.948 296.443 118.835 296.677 118.765C296.912 118.694 297.174 118.68 297.464 118.721L297.23 119.735ZM301.321 116.524C301.249 116.862 301.11 117.181 300.912 117.464C300.725 117.723 300.502 117.926 300.244 118.077C299.976 118.229 299.68 118.323 299.374 118.353C299.035 118.387 298.692 118.364 298.361 118.284C298.03 118.211 297.715 118.082 297.428 117.904C297.166 117.742 296.942 117.528 296.768 117.274C296.598 117.02 296.484 116.732 296.434 116.429C296.38 116.089 296.396 115.741 296.479 115.407C296.551 115.069 296.69 114.749 296.888 114.466C297.077 114.208 297.298 114.002 297.558 113.854C297.826 113.702 298.122 113.608 298.428 113.577C298.747 113.542 299.081 113.565 299.431 113.645C299.764 113.718 300.082 113.847 300.373 114.025C300.646 114.199 300.865 114.408 301.032 114.656C301.2 114.904 301.31 115.185 301.367 115.499C301.421 115.84 301.405 116.189 301.321 116.524ZM297.333 112.272L297.554 111.322L298.441 111.527L298.446 111.509C298.322 111.445 298.212 111.357 298.122 111.25C297.916 111.01 297.779 110.719 297.727 110.407C297.702 110.249 297.707 110.088 297.742 109.933C297.77 109.804 297.808 109.679 297.858 109.557L298.835 109.782C298.806 109.852 298.78 109.922 298.754 109.993C298.729 110.064 298.708 110.135 298.691 110.208C298.649 110.375 298.645 110.549 298.679 110.717C298.714 110.885 298.787 111.044 298.891 111.18C299.009 111.333 299.156 111.462 299.323 111.56C299.504 111.671 299.721 111.756 299.976 111.816L302.162 112.32L301.927 113.332L297.333 112.272ZM300.798 108.943C300.975 108.986 301.152 109 301.33 108.989C301.499 108.978 301.664 108.935 301.817 108.861C301.968 108.787 302.1 108.68 302.204 108.548C302.321 108.394 302.403 108.214 302.441 108.024C302.512 107.774 302.503 107.509 302.415 107.264C302.317 107.039 302.149 106.851 301.937 106.728L302.157 105.769C302.487 105.919 302.768 106.157 302.971 106.457C303.173 106.757 303.289 107.107 303.304 107.469C303.32 107.712 303.298 107.959 303.242 108.208C303.158 108.57 303.025 108.877 302.842 109.127C302.667 109.373 302.439 109.578 302.175 109.725C301.911 109.872 301.618 109.959 301.317 109.978C300.651 110.032 299.985 109.874 299.414 109.528C299.153 109.365 298.925 109.154 298.742 108.905C298.564 108.66 298.44 108.381 298.376 108.085C298.308 107.784 298.315 107.462 298.393 107.117C298.465 106.777 298.62 106.461 298.844 106.196C299.054 105.95 299.315 105.753 299.608 105.618C299.909 105.485 300.233 105.413 300.561 105.405C300.905 105.393 301.242 105.448 301.576 105.568L300.797 108.945L300.798 108.943ZM300.522 116.34C300.572 116.145 300.572 115.941 300.522 115.746C300.472 115.551 300.374 115.372 300.236 115.226C300.103 115.081 299.946 114.961 299.771 114.87C299.408 114.679 299.003 114.585 298.593 114.597C298.397 114.6 298.203 114.64 298.02 114.714C297.833 114.786 297.667 114.904 297.538 115.057C297.409 115.211 297.32 115.394 297.28 115.591C297.23 115.785 297.229 115.988 297.278 116.183C297.326 116.377 297.424 116.556 297.56 116.703C297.686 116.846 297.841 116.963 298.025 117.059C298.388 117.249 298.793 117.343 299.203 117.332C299.4 117.327 299.594 117.288 299.777 117.215C299.965 117.144 300.132 117.026 300.262 116.873C300.392 116.72 300.481 116.537 300.522 116.34ZM300.677 106.427C300.516 106.402 300.352 106.4 300.19 106.422C300.037 106.439 299.888 106.487 299.753 106.562C299.617 106.636 299.498 106.737 299.402 106.858C299.302 106.993 299.231 107.146 299.191 107.309C299.152 107.472 299.146 107.641 299.174 107.807C299.204 107.966 299.26 108.111 299.346 108.24C299.533 108.512 299.812 108.707 300.131 108.791L300.677 106.427Z" fill="white"/>
<rect x="352" y="88" width="48" height="48" rx="16" fill="#97C554"/>
<path d="M360.613 123.866C362.087 125.444 370.191 133.006 382.91 124.229C392.11 116.997 391.879 101.318 390.996 96.5802C390.688 97.2698 380.015 120.893 360.613 123.866ZM390.996 96.5771C390.882 96.5305 379.049 94.9026 367.351 102.511C360.087 107.233 359.124 114.148 359.456 118.768C376.461 116.835 390.608 97.1207 390.996 96.5771Z" fill="white"/>
<path d="M390.996 96.5771C390.882 96.5305 379.049 94.9026 367.351 102.511C360.087 107.233 359.124 114.148 359.456 118.768C376.461 116.835 390.608 97.1207 390.996 96.5771Z" fill="#709B30"/>
<rect x="440" y="88" width="48" height="48" rx="16" fill="#3498D4"/>
<path d="M450.4 98.3998H458.838V106.838H450.4V98.3998Z" fill="white"/>
<path d="M450.4 108.18H458.838V116.618H450.4V108.18Z" fill="white"/>
<path d="M450.4 117.962H458.838V126.4H450.4V117.962Z" fill="white"/>
<path d="M460.181 98.3999H468.619V106.838H460.181V98.3999Z" fill="white"/>
<path d="M469.963 98.3999H478.401V106.838H469.963V98.3999Z" fill="white"/>
<path d="M464.4 116.447C466.73 116.447 468.619 114.558 468.619 112.228C468.619 109.898 466.73 108.009 464.4 108.009C462.07 108.009 460.181 109.898 460.181 112.228C460.181 114.558 462.07 116.447 464.4 116.447Z" fill="#E87D4A"/>
<rect x="528" y="88" width="48" height="48" rx="16" fill="white"/>
<path d="M566.871 108.947L560.829 111.019L557.895 114.472L556.686 118.787H540.286L538.387 125.865H556.686C561.52 125.865 566.871 122.24 568.598 117.234C569.806 113.781 568.943 110.846 566.871 108.947Z" fill="url(#paint5_linear_784_5311)"/>
<path d="M545.983 118.787C541.322 118.787 541.149 115.335 541.667 113.436C542.185 111.537 541.667 113.436 542.531 109.983C543.048 108.257 544.257 106.358 545.983 104.977C546.156 104.804 546.501 104.632 546.674 104.459C546.674 104.459 546.674 104.459 546.846 104.459C548.4 103.596 550.126 102.905 552.025 102.905C557.032 102.905 560.829 102.905 560.829 102.905L561.52 100.834L566.699 105.149L559.103 109.465L559.794 107.221H551.507C548.573 107.221 547.709 109.293 547.364 110.156C547.192 111.537 546.846 114.472 550.472 114.472H556.859H559.794C564.627 114.472 569.979 110.846 571.705 105.84C573.431 100.488 570.497 96 565.145 96H547.537C545.638 96 543.739 96.5179 542.358 97.5537C542.358 97.5537 542.358 97.5537 542.185 97.5537C542.013 97.7263 541.667 97.8989 541.495 98.0716C539.768 99.4526 538.56 101.179 538.042 103.078L532 125.865H539.596L541.495 118.787H546.674C546.328 118.787 545.983 118.787 545.81 118.787" fill="#F37320"/>
<rect x="616" y="88" width="48" height="48" rx="16" fill="white"/>
<path d="M630.119 103.421H634.63L631.123 112.084C631.123 112.084 629.289 112.054 628.728 110.436C628.571 109.955 628.558 109.439 628.691 108.951L630.119 103.421Z" fill="#D53127"/>
<path d="M647.614 103.607L641.878 103.506L643.169 99.2067C643.288 98.8132 643.314 98.397 643.245 97.9914C643.176 97.5859 643.014 97.2022 642.772 96.8712C642.53 96.5401 642.215 96.2708 641.852 96.0848C641.488 95.8988 641.087 95.8013 640.679 95.8H635.444L629.458 117.507C629.458 117.507 627.313 126.79 635.444 127.63C635.444 127.63 648.297 130.284 652.421 114.602C652.421 114.602 654.598 105.117 647.614 103.607ZM643.694 114.372C643.694 114.372 643.464 118.377 640.472 119.081C640.03 119.193 639.563 119.144 639.153 118.944C638.684 118.702 638.199 118.2 638.211 117.149C638.219 116.845 638.267 116.543 638.355 116.252L639.46 112.084H642.477C642.477 112.084 643.843 112.533 643.694 114.372Z" fill="#F47320"/>
<path d="M652.697 110.23C652.148 103.858 647.615 103.606 647.615 103.606L641.879 103.506L639.415 112.134H642.424C642.976 112.164 643.984 113.085 643.657 114.715" fill="url(#paint6_linear_784_5311)"/>
<rect x="704" y="88" width="48" height="48" rx="16" fill="white"/>
<path d="M738.404 111.509C739.753 109.802 740.486 107.689 740.482 105.513C740.482 100.161 736.146 96 730.796 96H719.033V97.2105H730.535C735.263 97.2105 739.096 100.872 739.096 105.6C739.099 107.438 738.508 109.228 737.411 110.703L738.404 111.509Z" fill="#55A49F"/>
<path d="M737.092 110.507C738.379 109.198 739.099 107.436 739.097 105.6C739.097 103.742 738.359 101.96 737.045 100.646C735.732 99.3326 733.95 98.5944 732.092 98.5941H722.146V99.8057H732.351C733.101 99.8053 733.843 99.9526 734.536 100.239C735.229 100.526 735.858 100.946 736.389 101.476C736.919 102.006 737.34 102.636 737.627 103.328C737.914 104.021 738.062 104.764 738.062 105.513C738.063 106.346 737.881 107.169 737.53 107.923C737.178 108.678 736.666 109.347 736.028 109.882L737.092 110.507Z" fill="#4A8C89"/>
<path d="M735.173 109.594C736.809 108.879 738.062 107.321 738.062 105.514C738.062 103.03 735.702 101.016 733.219 101.016H724.567V101.708H733.13C735.18 101.708 737.194 103.374 737.194 105.427C737.194 107.091 735.876 108.502 734.282 108.974L735.173 109.594Z" fill="#5AABA5"/>
<path d="M715.573 126.789H717.476V128H715.573V126.789Z" fill="#4A8C8A"/>
<path d="M717.477 124.368H725.087V125.232H717.477V124.368Z" fill="#5AABA6"/>
<path d="M717.477 119.006H725.606V119.698H717.477V119.006Z" fill="#4B8F8E"/>
<path d="M727.163 119.006H732.352V119.699H727.163V119.006Z" fill="#7CC6C7"/>
<path d="M719.033 116.584H721.8V117.276H719.033V116.584Z" fill="#5AB5B4"/>
<path d="M723.357 116.584H732.352V117.276H723.357V116.584Z" fill="#428989"/>
<path d="M726.298 105.687H732.179V106.379H726.298V105.687Z" fill="#549391"/>
<path d="M719.379 101.016H722.665V101.709H719.379V101.016Z" fill="#306563"/>
<path d="M720.244 103.61H732.352V104.303H720.244V103.61Z" fill="#64B9B9"/>
<path d="M717.13 105.687H724.567V106.379H717.13V105.687Z" fill="#7FD6D5"/>
<path d="M719.206 126.616V127.827H732.351C737.703 127.827 742.037 123.664 742.037 118.314C742.037 115.744 741.017 113.281 739.2 111.464C737.383 109.647 734.92 108.627 732.351 108.627H723.876V109.666H732.092C734.363 109.666 736.541 110.568 738.146 112.174C739.752 113.78 740.654 115.957 740.654 118.228C740.654 122.958 736.82 126.618 732.092 126.618L719.206 126.616Z" fill="#55A49F"/>
<path d="M721.281 111.221V112.433H733.908C734.658 112.433 735.4 112.58 736.093 112.867C736.785 113.154 737.415 113.574 737.945 114.104C738.475 114.634 738.895 115.263 739.182 115.956C739.469 116.648 739.617 117.391 739.617 118.14C739.617 119.654 739.015 121.106 737.945 122.177C736.874 123.248 735.422 123.849 733.908 123.849H726.471V125.233H733.645C734.565 125.233 735.476 125.052 736.326 124.699C737.176 124.347 737.948 123.831 738.599 123.181C739.249 122.53 739.765 121.758 740.117 120.908C740.469 120.058 740.65 119.147 740.65 118.227C740.65 116.369 739.912 114.587 738.598 113.273C737.285 111.96 735.503 111.221 733.645 111.221H721.281Z" fill="#4A8C89"/>
<path d="M724.913 113.816V114.508H734.686C736.736 114.508 738.751 116.174 738.751 118.227C738.751 120.277 736.741 121.946 734.686 121.946H715.4V122.811H734.773C737.257 122.811 739.616 120.797 739.616 118.313C739.616 115.83 737.257 113.816 734.773 113.816H724.913Z" fill="#5AABA5"/>
<rect x="792" y="88" width="48" height="48" rx="16" fill="#0E0E0E"/>
<path d="M822.084 100.994L821.478 101.145V103.342C821.478 104.478 820.721 105.462 819.661 105.841L813.526 107.734V111.067L821.554 108.567C823.447 107.962 824.583 106.371 824.583 104.175V102.66C824.659 101.676 823.447 100.54 822.084 100.994Z" fill="white"/>
<path d="M809.286 100.009L820.646 96.45C821.858 96.0713 822.843 96.0713 823.448 96.1471L822.009 95.0868C821.328 94.6324 819.359 93.4964 816.86 94.2537L806.181 97.7375L809.286 100.009Z" fill="white"/>
<path d="M826.554 109.855C826.554 109.855 828.523 108.037 828.523 104.099V102.433C828.523 99.858 825.569 95.6926 820.798 97.2073L809.665 100.767V121.594L812.846 120.609V115.459L822.994 112.278C824.887 111.672 826.478 113.187 826.478 114.853V116.898C826.478 118.943 824.66 121.896 821.782 122.805L806.181 127.652L809.286 130L823.297 125.607C826.251 124.699 829.507 122.124 829.507 116.747V114.702C829.583 111.37 826.554 109.855 826.554 109.855ZM821.858 109.325L812.846 112.203V103.115L821.858 100.237C823.751 99.6308 825.418 101.145 825.418 102.736V104.251C825.418 106.75 823.979 108.643 821.858 109.325Z" fill="white"/>
<path d="M825.645 116.822V114.853C825.645 113.717 824.509 112.657 823.221 113.036L822.539 113.263V116.065C822.539 117.428 821.631 118.64 820.343 119.094L808.832 122.654V100.615L805.651 98.2676V126.971L821.479 121.972C823.978 121.215 825.645 118.716 825.645 116.822Z" fill="white"/>
<rect y="176" width="48" height="48" rx="16" fill="url(#paint7_linear_784_5311)"/>
<path d="M34.6782 206.113V188.181L40 191.17V209.102L30.1857 214.604L24.8639 211.615L34.6782 206.113ZM8 198.098L13.3218 195.109V206.045L29.3564 215.011L24.0346 218L8 209.034V198.098ZM24.0346 182L33.8488 187.434V193.411L24.0346 187.977L8 197.011V191.034L24.0346 182ZM18.0216 192.664L21.6156 190.626V198.166C22.0302 197.894 22.8596 197.215 24.1728 197.215C25.9006 197.215 27.3521 197.758 28.527 198.981C29.7711 200.136 30.324 201.562 30.324 203.192C30.324 204.823 29.7019 206.249 28.527 207.404C27.2829 208.558 25.9006 209.17 24.1728 209.17C22.4449 209.17 20.9935 208.694 19.8186 207.472C18.5745 206.317 18.0216 204.891 18.0216 203.26V192.664ZM22.3758 205.026C22.8596 205.502 23.4816 205.774 24.1728 205.774C24.8639 205.774 25.486 205.502 25.9698 205.026C26.4536 204.551 26.73 203.94 26.73 203.26C26.73 202.581 26.4536 201.97 25.9698 201.494C25.486 201.019 24.8639 200.747 24.1728 200.747C23.4816 200.747 22.8596 201.019 22.3758 201.494C21.892 201.97 21.6156 202.581 21.6156 203.26C21.6847 203.94 21.892 204.483 22.3758 205.026Z" fill="white"/>
<rect x="88" y="176" width="48" height="48" rx="16" fill="#149F49"/>
<path fill-rule="evenodd" clip-rule="evenodd" d="M115.206 197.374C114.411 197.248 113.594 197.292 112.792 197.285C111.601 197.285 110.41 197.3 109.224 197.278C109.21 199.434 109.21 201.589 109.224 203.745C110.655 203.729 112.079 203.738 113.507 203.738C114.264 203.738 115.039 203.766 115.765 203.494C116.254 203.319 116.691 203.023 117.035 202.633C117.378 202.243 117.617 201.772 117.73 201.265C117.898 200.412 117.81 199.478 117.321 198.742C116.857 198.006 116.045 197.543 115.206 197.374Z" fill="#149F49"/>
<path fill-rule="evenodd" clip-rule="evenodd" d="M113.094 194.482C113.734 194.468 114.382 194.542 114.999 194.342C116.015 194.055 116.927 193.209 117.089 192.135C117.236 191.252 117.067 190.275 116.449 189.597C115.794 188.869 114.778 188.516 113.815 188.553H109.21C109.217 190.532 109.217 192.503 109.21 194.479L113.094 194.482Z" fill="#149F49"/>
<path d="M114.53 206.842C115.824 206.856 117.156 206.695 118.355 206.18C119.555 205.665 120.628 204.819 121.268 203.678C122.202 202.053 122.225 199.949 121.356 198.286C120.724 197.072 119.591 196.182 118.326 195.696C119.143 195.269 119.907 194.703 120.407 193.924C121.195 192.827 121.312 191.407 121.136 190.105C120.939 189.017 120.398 188.022 119.591 187.266C118.39 186.155 116.755 185.588 115.147 185.485C111.086 185.47 107.033 185.478 102.98 185.485C102.987 186.42 102.972 187.354 102.987 188.296C103.509 188.317 104.031 188.413 104.488 188.678C105.436 189.156 106.047 190.164 106.15 191.209C106.2 192.069 105.906 192.915 105.333 193.559C104.736 194.214 103.869 194.626 102.983 194.589C102.99 195.442 102.983 196.295 102.99 197.156C103.608 197.2 104.241 197.34 104.748 197.708C105.675 198.304 106.204 199.415 106.153 200.504C106.193 201.066 106.092 201.63 105.859 202.144C105.358 203.24 104.197 204.013 102.983 203.991C102.99 204.939 102.983 205.889 102.983 206.838L114.53 206.842ZM117.73 201.265C117.618 201.772 117.379 202.243 117.035 202.633C116.691 203.023 116.255 203.319 115.765 203.495C115.045 203.766 114.264 203.738 113.507 203.738C112.077 203.738 110.652 203.73 109.225 203.745C109.211 201.589 109.211 199.433 109.225 197.278C110.41 197.301 111.601 197.285 112.793 197.285C113.595 197.292 114.411 197.248 115.206 197.374C116.045 197.543 116.854 198.007 117.317 198.742C117.811 199.478 117.899 200.412 117.73 201.265ZM109.211 188.553H113.816C114.779 188.516 115.795 188.869 116.45 189.597C117.068 190.275 117.237 191.253 117.089 192.135C116.928 193.209 116.016 194.055 115 194.342C114.387 194.542 113.735 194.468 113.095 194.482H109.213C109.218 192.503 109.218 190.532 109.211 188.553Z" fill="white"/>
<path d="M114.735 211.44C110.814 211.447 106.9 211.417 102.984 211.447C102.962 212.469 102.962 213.491 102.984 214.507C106.729 214.537 110.473 214.515 114.218 214.523C116.808 214.515 119.397 214.537 121.983 214.507C122.006 213.493 122.006 212.47 121.983 211.447C119.569 211.417 117.148 211.447 114.735 211.44Z" fill="#73C692"/>
<rect x="176" y="176" width="48" height="48" rx="16" fill="white"/>
<g clip-path="url(#clip0_784_5311)">
<path d="M188 214.326H212V218.306H188V214.326Z" fill="#159E49"/>
<path d="M205.409 203.259C204.663 204.005 203.544 204.378 202.176 204.378H195.834V196.171H202.176C203.544 196.171 204.539 196.544 205.409 197.29C206.155 198.036 206.653 199.031 206.653 200.275C206.653 201.518 206.28 202.513 205.409 203.259ZM195.834 184.979H201.679C202.922 184.979 203.793 185.352 204.663 186.098C205.409 186.845 205.782 187.715 205.782 188.834C205.782 189.953 205.409 190.824 204.663 191.57C203.793 192.192 202.922 192.565 201.679 192.565H195.834V184.979ZM210.756 196.668C209.886 195.425 208.767 194.554 207.275 194.057C208.394 193.56 209.264 192.813 210.01 191.819C210.756 190.824 211.005 189.58 211.005 188.212C211.005 187.093 210.756 186.098 210.383 185.352C210.01 184.482 209.389 183.736 208.642 183.114C207.896 182.492 207.026 181.995 205.907 181.622C204.788 181.249 203.793 181 202.425 181H188V184.606C190.238 184.606 191.979 186.472 191.979 188.71C191.979 190.948 190.238 192.689 188 192.689V196.047C190.238 196.047 191.979 197.912 191.979 200.15V200.772C191.979 203.01 190.238 204.876 188 204.876V208.482H203.171C204.539 208.482 205.658 208.358 206.653 207.86C207.772 207.487 208.642 206.99 209.389 206.368C210.135 205.622 210.756 204.876 211.254 204.005C211.751 203.135 212 202.016 212 200.896C212 199.155 211.503 197.788 210.756 196.668Z" fill="#242424"/>
</g>
<rect x="264" y="176" width="48" height="48" rx="16" fill="#0082D7"/>
<path d="M280.946 186V190.348H283.328V188.732H297.618V205.121H283.328V196.314H280.946V207.853H299.997V186H280.946ZM276 192.146V214H295.053V209.476H292.672V211.268H278.381V194.878H292.672V203.509H295.053V192.146H276Z" fill="white"/>
<rect x="352" y="176" width="48" height="48" rx="16" fill="#0051FF"/>
<path d="M373.911 187H383.344L369.417 210.344H360L373.911 187Z" fill="white"/>
<path d="M382.572 198.597H392L385.037 210.344H375.614L382.572 198.597Z" fill="white"/>
<rect x="440" y="176" width="48" height="48" rx="16" fill="black"/>
<path fill-rule="evenodd" clip-rule="evenodd" d="M464.002 184C455.169 184 448 191.169 448 200.002C448 208.835 455.169 216.003 464.002 216.003C472.835 216.003 480.003 208.834 480.003 200.002C480.003 191.17 472.834 184 464.002 184ZM462.721 212.803C455.653 212.803 449.921 207.071 449.921 200.003C449.921 192.935 455.653 187.202 462.721 187.202C469.764 187.202 475.522 192.899 475.522 200.003C475.522 207.107 469.764 212.803 462.721 212.803Z" fill="white"/>
<rect x="528" y="176" width="48" height="48" rx="16" fill="#004BEF"/>
<path d="M566.053 195.306C568.649 197.902 568.649 202.098 566.053 204.666L556.694 214.053C554.098 216.649 549.902 216.649 547.334 214.053L537.947 204.694C535.351 202.098 535.351 197.902 537.947 195.334L547.306 185.947C549.902 183.351 554.098 183.351 556.694 185.947L566.053 195.306ZM559.041 202.347C560.338 201.049 560.338 198.951 559.041 197.653L554.347 192.959C553.049 191.662 550.951 191.662 549.653 192.959L544.959 197.653C543.662 198.951 543.662 201.049 544.959 202.347L549.653 207.041C550.951 208.338 553.049 208.338 554.347 207.041L559.041 202.347Z" fill="white"/>
<rect x="616" y="176" width="48" height="48" rx="16" fill="#29A844"/>
<path d="M636.526 200L641.5 191.352H631.554L628.104 185.35H651.851L639.974 205.997L636.526 200Z" fill="#E6362D"/>
<path d="M636.526 199.999L641.5 208.648H631.554L628.104 214.649H651.851L639.974 194.002L636.526 199.999Z" fill="white"/>
<path d="M639.974 193.998L636.523 200L639.974 206.002L643.424 200L639.974 193.998Z" fill="#27732E"/>
<rect x="704" y="176" width="48" height="48" rx="16" fill="black"/>
<path d="M728.241 209.536C729.847 209.536 731.453 209.058 733.06 208.261C737.558 205.71 739.164 199.812 736.594 195.348C734.024 190.884 728.08 189.29 723.582 191.841C721.333 193.116 719.887 195.188 719.084 197.58C718.441 199.971 718.763 202.522 720.048 204.754C721.654 207.942 724.867 209.536 728.241 209.536ZM721.976 198.536C722.457 196.942 723.421 195.507 725.028 194.71C725.992 194.072 727.116 193.913 728.241 193.913C730.49 193.913 732.578 195.029 733.863 197.101C735.63 200.13 734.506 204.116 731.453 205.87C728.401 207.623 724.385 206.507 722.618 203.478C721.815 201.884 721.494 200.13 721.976 198.536Z" fill="white"/>
<path d="M738.843 193.913C740.128 195.985 742.056 197.58 744.465 198.217C745.268 198.377 746.072 198.536 746.875 198.536C747.357 198.536 747.678 198.536 748.16 198.377C747.999 197.42 747.839 196.464 747.678 195.348C746.875 195.507 746.072 195.348 745.268 195.188C743.662 194.71 742.377 193.754 741.413 192.319C740.61 190.884 740.289 189.29 740.77 187.696C740.931 186.899 741.413 186.261 741.895 185.623C741.092 184.985 740.449 184.348 739.485 183.71C738.682 184.667 738.2 185.783 737.879 186.899C737.236 189.449 737.558 191.841 738.843 193.913Z" fill="white"/>
<path d="M744.465 202.043C742.056 202.681 740.128 204.116 738.843 206.348C737.558 208.42 737.236 210.971 737.879 213.362C738.2 214.638 738.843 215.594 739.485 216.551C740.289 215.913 741.092 215.275 741.895 214.638C741.413 214 741.092 213.362 740.77 212.565C740.289 210.971 740.61 209.377 741.413 207.942C742.216 206.507 743.662 205.551 745.268 205.072C746.072 204.913 746.875 204.754 747.678 204.913C747.839 203.956 747.999 203 748.16 201.884C746.875 201.565 745.75 201.725 744.465 202.043Z" fill="white"/>
<path d="M728.08 215.435C730.65 215.435 732.899 217.029 733.863 219.261C734.827 218.942 735.791 218.623 736.755 218.145C735.309 214.797 732.096 212.406 728.241 212.406C724.385 212.406 721.012 214.797 719.727 218.145C720.69 218.623 721.654 218.942 722.618 219.261C723.421 217.029 725.51 215.435 728.08 215.435Z" fill="white"/>
<path d="M728.08 187.855C731.935 187.855 735.309 185.464 736.594 182.116C735.63 181.638 734.827 181.319 733.702 181C732.739 183.232 730.49 184.826 727.919 184.826C725.349 184.826 723.1 183.232 722.136 181C721.172 181.319 720.208 181.638 719.245 182.116C721.012 185.464 724.225 187.855 728.08 187.855Z" fill="white"/>
<path d="M717.477 206.348C716.192 204.275 714.265 202.681 711.855 202.043C710.57 201.725 709.445 201.725 708.16 201.884C708.321 202.841 708.481 203.797 708.642 204.913C708.963 204.913 709.124 204.913 709.445 204.913C709.927 204.913 710.57 204.913 711.052 205.072C712.658 205.551 713.943 206.507 714.907 207.942C716.192 210.174 715.871 212.884 714.425 214.797C715.228 215.435 715.871 216.072 716.835 216.71C718.923 213.681 719.405 209.536 717.477 206.348Z" fill="white"/>
<path d="M711.855 198.217C714.265 197.58 716.192 196.145 717.477 193.913C718.763 191.841 719.084 189.29 718.441 186.899C718.12 185.623 717.477 184.667 716.835 183.71C715.871 184.348 715.068 184.985 714.425 185.623C714.907 186.261 715.228 186.899 715.55 187.696C716.032 189.29 715.71 190.884 714.907 192.319C714.104 193.754 712.658 194.71 711.052 195.188C710.249 195.348 709.445 195.507 708.642 195.348C708.481 196.304 708.321 197.261 708.16 198.377C708.642 198.377 708.963 198.536 709.445 198.536C710.249 198.536 711.052 198.536 711.855 198.217Z" fill="white"/>
<rect x="792" y="176" width="48" height="48" rx="16" fill="white"/>
<path fill-rule="evenodd" clip-rule="evenodd" d="M830.2 194.767L829.16 192L829.882 190.411C829.975 190.207 829.93 189.966 829.77 189.808L827.806 187.859C826.947 187.008 825.665 186.715 824.511 187.108L823.962 187.294L821.093 184.08H816.873H814.199H810.545L807.713 187.333L807.179 187.149C806.014 186.747 804.717 187.043 803.853 187.908L801.854 189.893C801.726 190.02 801.691 190.211 801.765 190.374L802.519 192.023L801.485 194.788L802.155 197.281L805.202 208.645C805.553 209.955 806.362 211.103 807.487 211.888C807.487 211.888 811.187 214.447 814.839 216.772C815.16 216.976 815.496 217.126 815.857 217.12C816.217 217.125 816.553 216.976 816.873 216.771C820.975 214.135 824.219 211.878 824.219 211.878C825.343 211.091 826.15 209.942 826.5 208.631L829.533 197.263L830.2 194.767Z" fill="url(#paint8_linear_784_5311)"/>
<path fill-rule="evenodd" clip-rule="evenodd" d="M826.957 195.316L826.91 195.464L826.834 195.729C826.632 195.976 826.206 196.449 825.888 196.782L822.958 199.835C822.639 200.167 822.459 200.584 822.641 201.004L823.036 201.959C823.218 202.378 823.236 203.072 823.061 203.537C822.885 204.011 822.58 204.43 822.181 204.75L821.875 204.994C821.514 205.282 820.875 205.358 820.455 205.162L819.105 204.534C818.685 204.339 818.058 203.929 817.712 203.624L816.435 202.499C816.186 202.279 816.172 201.902 816.404 201.665L819.513 199.609C819.899 199.354 820.103 198.882 819.884 198.48L818.778 196.508C818.559 196.106 818.472 195.572 818.583 195.32C818.696 195.069 819.143 194.732 819.579 194.57L823.188 193.255C823.623 193.094 823.6 192.927 823.137 192.884L820.831 192.716C820.367 192.674 820.027 192.74 819.579 192.862L817.833 193.286C817.385 193.408 817.29 193.876 817.374 194.324L818.094 198.152C818.179 198.6 818.22 199.051 818.186 199.155C818.152 199.259 817.754 199.426 817.3 199.527L816.703 199.659C816.249 199.76 815.505 199.765 815.05 199.67L814.328 199.519C813.873 199.424 813.473 199.261 813.438 199.158C813.405 199.054 813.445 198.602 813.53 198.155L814.245 194.326C814.329 193.878 814.234 193.411 813.786 193.289L812.039 192.867C811.591 192.745 811.251 192.68 810.788 192.723L808.481 192.893C808.018 192.936 807.995 193.103 808.43 193.264L812.042 194.575C812.477 194.736 812.925 195.073 813.037 195.324C813.15 195.575 813.063 196.109 812.844 196.511L811.741 198.484C811.522 198.886 811.727 199.358 812.113 199.613L815.225 201.666C815.457 201.902 815.443 202.28 815.195 202.5L813.919 203.627C813.574 203.932 812.947 204.342 812.527 204.539L811.178 205.168C810.758 205.364 810.119 205.289 809.758 205.002L809.453 204.758C809.053 204.439 808.747 204.02 808.555 203.508C808.395 203.08 808.412 202.387 808.593 201.967L808.987 201.012C809.168 200.592 808.988 200.176 808.669 199.844L805.735 196.794C805.417 196.462 804.99 195.989 804.788 195.743L804.712 195.477L804.664 195.329C804.66 195.158 804.722 194.615 804.793 194.468C804.863 194.321 805.134 193.892 805.395 193.515L806.023 192.605C806.283 192.227 806.734 191.627 807.024 191.27L807.944 190.14C808.234 189.784 808.481 189.494 808.519 189.496C808.52 189.494 808.896 189.562 809.353 189.648L810.746 189.91C811.203 189.996 811.707 190.091 811.867 190.12C812.026 190.149 812.518 190.059 812.961 189.918L813.964 189.6C814.406 189.459 815.078 189.274 815.456 189.188L815.807 189.193L816.157 189.187C816.535 189.273 817.207 189.457 817.65 189.598L818.653 189.915C819.096 190.055 819.589 190.145 819.748 190.115C819.885 190.09 820.276 190.016 820.673 189.941L820.868 189.904L822.261 189.641C822.718 189.554 823.094 189.485 823.121 189.487C823.133 189.485 823.38 189.774 823.671 190.131L824.592 191.26C824.883 191.616 825.334 192.215 825.595 192.593L826.224 193.502C826.485 193.879 826.893 194.566 826.918 194.722C826.944 194.878 826.961 195.145 826.957 195.316ZM815.997 204.428C816.038 204.428 816.423 204.57 816.853 204.745L817.252 204.907C817.682 205.081 818.374 205.393 818.789 205.599L819.966 206.185C820.381 206.391 820.411 206.777 820.032 207.042L819.028 207.745C818.649 208.011 818.054 208.471 817.705 208.769C817.61 208.851 817.498 208.946 817.378 209.049C817.061 209.32 816.692 209.636 816.439 209.852C816.092 210.149 815.528 210.15 815.187 209.855C814.846 209.56 814.281 209.077 813.932 208.782C813.583 208.486 812.986 208.029 812.606 207.767L811.605 207.074C811.225 206.811 811.252 206.423 811.665 206.213L812.848 205.609C813.261 205.399 813.95 205.083 814.38 204.909L814.779 204.746C815.209 204.571 815.594 204.428 815.635 204.428H815.816H815.997Z" fill="url(#paint9_linear_784_5311)"/>
<rect y="-2" width="287" height="230" fill="url(#paint10_linear_784_5311)"/>
<rect x="840" y="228" width="287" height="230" transform="rotate(180 840 228)" fill="url(#paint11_linear_784_5311)"/>
<defs>
<linearGradient id="paint0_linear_784_5311" x1="95.6995" y1="20.8922" x2="107.032" y2="20.8922" gradientUnits="userSpaceOnUse">
<stop stop-color="white" stop-opacity="0"/>
<stop offset="1" stop-color="white"/>
</linearGradient>
<linearGradient id="paint1_linear_784_5311" x1="127.599" y1="17.3494" x2="117.147" y2="18.2132" gradientUnits="userSpaceOnUse">
<stop stop-color="#FD76FD" stop-opacity="0"/>
<stop offset="1" stop-color="#FF51FF"/>
</linearGradient>
<linearGradient id="paint2_linear_784_5311" x1="127.443" y1="22.3271" x2="119.198" y2="22.3271" gradientUnits="userSpaceOnUse">
<stop stop-color="#5300FF" stop-opacity="0"/>
<stop offset="1" stop-color="#9D6EFF"/>
</linearGradient>
<linearGradient id="paint3_linear_784_5311" x1="127.621" y1="19.94" x2="119.651" y2="22.3619" gradientUnits="userSpaceOnUse">
<stop stop-color="#AE60D6" stop-opacity="0"/>
<stop offset="1" stop-color="#AB38E6"/>
</linearGradient>
<linearGradient id="paint4_linear_784_5311" x1="191.075" y1="6.3468" x2="200.422" y2="30.6926" gradientUnits="userSpaceOnUse">
<stop stop-color="#B8E27F"/>
<stop offset="1" stop-color="#2A6700"/>
</linearGradient>
<linearGradient id="paint5_linear_784_5311" x1="570.429" y1="114.47" x2="548.293" y2="122.601" gradientUnits="userSpaceOnUse">
<stop offset="0.3633" stop-color="#D63026"/>
<stop offset="1" stop-color="#F37320"/>
</linearGradient>
<linearGradient id="paint6_linear_784_5311" x1="651.644" y1="118.754" x2="642.48" y2="104.828" gradientUnits="userSpaceOnUse">
<stop offset="0.41" stop-color="#F47320"/>
<stop offset="0.5" stop-color="#F16D21"/>
<stop offset="0.62" stop-color="#E95C22"/>
<stop offset="0.75" stop-color="#DC4125"/>
<stop offset="0.81" stop-color="#D53127"/>
</linearGradient>
<linearGradient id="paint7_linear_784_5311" x1="24.0066" y1="176.037" x2="24.0066" y2="223.963" gradientUnits="userSpaceOnUse">
<stop stop-color="#FEE276"/>
<stop offset="1" stop-color="#F0B734"/>
</linearGradient>
<linearGradient id="paint8_linear_784_5311" x1="801.485" y1="217.354" x2="830.2" y2="217.354" gradientUnits="userSpaceOnUse">
<stop stop-color="#FF5500"/>
<stop offset="0.409877" stop-color="#FF5500"/>
<stop offset="0.49434" stop-color="#FF4530"/>
<stop offset="0.572365" stop-color="#FF2000"/>
<stop offset="1" stop-color="#FF2000"/>
</linearGradient>
<linearGradient id="paint9_linear_784_5311" x1="815.811" y1="214.96" x2="826.237" y2="214.96" gradientUnits="userSpaceOnUse">
<stop stop-color="white"/>
<stop offset="1" stop-color="#F4F4F4"/>
</linearGradient>
<linearGradient id="paint10_linear_784_5311" x1="287" y1="113" x2="-7.05291e-06" y2="113" gradientUnits="userSpaceOnUse">
<stop stop-color="white" stop-opacity="0"/>
<stop offset="1" stop-color="white"/>
</linearGradient>
<linearGradient id="paint11_linear_784_5311" x1="1127" y1="343" x2="840" y2="343" gradientUnits="userSpaceOnUse">
<stop stop-color="white" stop-opacity="0"/>
<stop offset="1" stop-color="white"/>
</linearGradient>
<clipPath id="clip0_784_5311">
<rect width="24" height="37.3057" fill="white" transform="translate(188 181)"/>
</clipPath>
</defs>
</svg>
