<svg width="80" height="49" viewBox="0 0 80 49" fill="none" xmlns="http://www.w3.org/2000/svg">
<path d="M41.9856 21.6599C41.7906 21.4507 41.559 21.2847 41.3041 21.1715C41.0492 21.0583 40.7759 21 40.5 21C40.2241 21 39.9508 21.0583 39.6959 21.1715C39.441 21.2847 39.2094 21.4507 39.0144 21.6599L30.6153 30.6593C30.4203 30.8683 30.2655 31.1165 30.1599 31.3896C30.0543 31.6627 30 31.9554 30 32.251C30 32.5467 30.0543 32.8394 30.1599 33.1125C30.2655 33.3856 30.4203 33.6338 30.6153 33.8428C31.0093 34.265 31.5437 34.5021 32.1009 34.5021C32.3768 34.5021 32.65 34.4439 32.9049 34.3308C33.1598 34.2177 33.3914 34.0518 33.5865 33.8428L38.4002 28.6822V45.7501C38.4002 46.3468 38.6215 46.9191 39.0152 47.341C39.409 47.763 39.9431 48 40.5 48C41.0569 48 41.591 47.763 41.9848 47.341C42.3785 46.9191 42.5998 46.3468 42.5998 45.7501V28.6822L47.4135 33.8428C47.6086 34.0518 47.8402 34.2177 48.0951 34.3308C48.35 34.4439 48.6232 34.5021 48.8991 34.5021C49.175 34.5021 49.4482 34.4439 49.7031 34.3308C49.958 34.2177 50.1896 34.0518 50.3847 33.8428C50.5797 33.6338 50.7345 33.3856 50.8401 33.1125C50.9457 32.8394 51 32.5467 51 32.251C51 31.9554 50.9457 31.6627 50.8401 31.3896C50.7345 31.1165 50.5797 30.8683 50.3847 30.6593L41.9856 21.6599Z" fill="#AB6FFF"/>
<path d="M79.6798 31.6377C79.675 36.2205 77.8706 40.6143 74.6622 43.8554C71.4538 47.0965 67.1035 48.9203 62.5654 48.9268H12.7729C13.1792 47.3149 13.1393 45.6214 12.6577 44.0308H62.5654C65.8186 44.0308 68.9385 42.7257 71.2389 40.4027C73.5392 38.0797 74.8316 34.9291 74.8316 31.6438C74.8316 28.3586 73.5392 25.208 71.2389 22.885C68.9385 20.562 65.8186 19.2569 62.5654 19.2569C61.6791 19.2584 60.7954 19.3548 59.9292 19.5445L57.2505 20.1565L56.996 17.4025C56.7045 14.256 55.3316 11.3117 53.1154 9.08044C50.8993 6.84914 47.9796 5.47155 44.8629 5.18661C41.7462 4.90168 38.6291 5.72733 36.0521 7.52044C33.4752 9.31354 31.601 11.961 30.7547 15.0035L29.9547 17.8738L27.3185 16.5151C26.257 15.9658 25.081 15.6805 23.8883 15.6828C21.884 15.686 19.9627 16.4919 18.546 17.9238C17.1292 19.3556 16.3327 21.2965 16.3311 23.3206C16.3307 23.789 16.3753 24.2563 16.4644 24.716L17.0341 27.831L13.9009 27.6046C13.6706 27.6046 13.4827 27.6046 13.2949 27.6046C12.2053 27.5746 11.1209 27.7654 10.1056 28.1658C9.09034 28.5661 8.16479 29.1678 7.38366 29.9354C6.60253 30.703 5.98165 31.621 5.5577 32.635C5.13375 33.6489 4.91532 34.7384 4.91532 35.8391C4.91532 36.9398 5.13375 38.0293 5.5577 39.0433C5.98165 40.0573 6.60253 40.9752 7.38366 41.7428C8.16479 42.5104 9.09034 43.1122 10.1056 43.5125C11.1209 43.9128 12.2053 44.1036 13.2949 44.0736H13.3373C13.0784 44.9347 13.2931 45.876 13.2949 46.7759C13.2955 47.531 13.0417 48.2369 13.2221 48.9697C9.94282 48.9434 6.79438 47.667 4.40736 45.3961C2.02034 43.1252 0.57098 40.0275 0.34953 36.7234C0.12808 33.4192 1.1509 30.1525 3.21314 27.5775C5.27538 25.0025 8.22479 23.3094 11.4707 22.8371C11.544 20.9694 12.0304 19.1419 12.8943 17.4887C13.7582 15.8356 14.9777 14.3987 16.4632 13.2836C17.9487 12.1685 19.6626 11.4033 21.4791 11.0444C23.2957 10.6854 25.1687 10.7416 26.9609 11.209C28.5133 7.68708 31.1201 4.74524 34.4145 2.79743C37.7089 0.849625 41.5251 -0.00612211 45.3262 0.350577C49.1273 0.707276 52.7221 2.25846 55.6047 4.78592C58.4872 7.31338 60.5126 10.6899 61.3958 14.4404C61.7776 14.4404 62.1655 14.3976 62.5473 14.3976C67.0801 14.3992 71.4278 16.2141 74.6387 19.4452C77.8496 22.6762 79.6622 27.0602 79.6798 31.6377Z" fill="#AB6FFF"/>
</svg>
