<svg width="184" height="32" viewBox="0 0 184 32" fill="none" xmlns="http://www.w3.org/2000/svg">
  <rect width="184" height="32" fill="#1E1E1E"></rect>
  <g id="✅🖥️ Cosmology.zone - Home" clip-path="url(#clip0_1_1938)">
    <rect width="1440" height="3899" transform="translate(-156 -28)" fill="white"></rect>
    <g id="Group 404">
      <g id="Group 403">
        <path id="Fill 1" fill-rule="evenodd" clip-rule="evenodd"
          d="M37.6856 0.82666C37.0444 0.830514 36.4017 0.93563 35.7781 1.14411C35.7716 1.14621 35.7655 1.14796 35.7591 1.15042L29.972 3.10311C25.9803 0.751327 21.193 0.24467 16.7955 1.71314C16.7797 1.71839 16.7633 1.72435 16.7475 1.72925C10.6907 3.7734 6.44573 9.36345 6.18423 15.6396C6.1718 15.9366 6.46123 16.1537 6.74293 16.0587L9.93735 14.9808C10.087 14.9303 10.1957 14.8001 10.2185 14.6438C10.8461 10.334 13.8391 6.77866 18.0299 5.36415C18.0425 5.3603 18.0536 5.35644 18.0658 5.35224C21.7767 4.11288 25.7447 4.79963 28.7544 6.9195C29.0029 7.09452 29.1272 7.18202 29.2432 7.22087C29.3439 7.25462 29.4301 7.26721 29.5363 7.26371C29.6586 7.25968 29.7883 7.21621 30.0477 7.12927L37.0412 4.78531L37.0476 4.78321C38.1319 4.42126 39.3159 4.98714 39.6899 6.0467C40.0642 7.10837 39.486 8.2699 38.4013 8.63675L38.4035 8.64306L4.0546 20.2212C2.5386 20.7331 1.31563 21.7934 0.611366 23.2079C-0.0925414 24.622 -0.192127 26.2177 0.330878 27.7009C0.853882 29.184 1.93822 30.3803 3.38401 31.0688C4.82979 31.7576 6.45648 31.8578 7.97785 31.3435L13.7649 29.3904C17.7566 31.7426 22.5432 32.2496 26.9407 30.7808C26.9565 30.7751 26.973 30.7695 26.9887 30.7646C33.0463 28.7205 37.2912 23.1301 37.5527 16.854C37.5651 16.557 37.2757 16.3399 36.994 16.4349L33.7996 17.5131C33.6499 17.5636 33.5413 17.6938 33.5184 17.8501C32.8904 22.1595 29.8975 25.7152 25.7066 27.129C25.6945 27.1332 25.683 27.1374 25.6712 27.1417C21.9608 28.3801 17.9945 27.6944 14.9853 25.5762C14.737 25.4014 14.6128 25.314 14.4969 25.2752C14.3962 25.2415 14.3102 25.2289 14.204 25.2324C14.0819 25.2364 13.9523 25.2798 13.6931 25.3665L6.69542 27.7082C6.69542 27.7082 6.69148 27.7096 6.68897 27.7103C5.60499 28.0723 4.4207 27.5068 4.04708 26.4472C3.67238 25.3852 4.25091 24.2229 5.33704 23.8561L39.6823 12.2727C42.1655 11.4346 43.7295 9.15497 43.7353 6.71874V6.69772C43.7342 6.06527 43.6282 5.42302 43.4061 4.79267C42.8827 3.30949 41.7984 2.11328 40.3526 1.42477C39.5272 1.03164 38.6417 0.831215 37.7519 0.82666H37.6856Z"
          fill="url(#paint0_linear_1_1938)"></path>
        <g id="cosmology">
          <path
            d="M55.6296 18.9203C55.6296 22.9201 58.1263 25.5696 61.9478 25.5696C65.2342 25.5696 67.68 23.557 68.0621 20.6272H64.9285C64.5973 22.0029 63.5018 22.7672 61.9478 22.7672C59.9606 22.7672 58.7378 21.2896 58.7378 18.9203C58.7378 16.551 60.0625 15.0479 62.0497 15.0479C63.5273 15.0479 64.5718 15.7867 64.9285 17.2133H68.0366C67.7054 14.1817 65.3616 12.2709 61.9223 12.2709C58.2028 12.2709 55.6296 15.0224 55.6296 18.9203Z"
            fill="#2C3137"></path>
          <path
            d="M69.6367 18.9203C69.6367 22.8436 72.4645 25.5441 76.3624 25.5441C80.2603 25.5441 83.0882 22.8436 83.0882 18.9203C83.0882 14.9969 80.2603 12.2964 76.3624 12.2964C72.4645 12.2964 69.6367 14.9969 69.6367 18.9203ZM72.7448 18.9203C72.7448 16.6274 74.2224 15.0733 76.3624 15.0733C78.5024 15.0733 79.9801 16.6274 79.9801 18.9203C79.9801 21.2131 78.5024 22.7672 76.3624 22.7672C74.2224 22.7672 72.7448 21.2131 72.7448 18.9203Z"
            fill="#2C3137"></path>
          <path
            d="M84.5837 21.4169C84.5837 23.8882 86.5709 25.5696 89.7045 25.5696C92.8126 25.5696 94.9781 23.9901 94.9781 21.4424C94.9781 19.5062 93.9081 18.5381 91.7935 18.0541L89.5261 17.5191C88.4561 17.2643 87.8956 16.8057 87.8956 16.0924C87.8956 15.1498 88.609 14.5893 89.8318 14.5893C91.0292 14.5893 91.7426 15.2771 91.768 16.3472H94.7233C94.6978 13.9014 92.7871 12.2709 89.9592 12.2709C87.0549 12.2709 84.9659 13.7486 84.9659 16.2198C84.9659 18.2324 86.0613 19.3024 88.3287 19.8119L90.5961 20.3469C91.7171 20.6017 92.0483 21.0603 92.0483 21.6972C92.0483 22.6143 91.2585 23.2003 89.8064 23.2003C88.3797 23.2003 87.5644 22.5124 87.539 21.4169H84.5837Z"
            fill="#2C3137"></path>
          <path
            d="M100.453 25.2384V18.105C100.453 16.0669 101.65 15.0988 103.128 15.0988C104.605 15.0988 105.548 16.0414 105.548 17.7993V25.2384H108.656V18.105C108.656 16.0414 109.803 15.0733 111.306 15.0733C112.783 15.0733 113.751 16.016 113.751 17.8248V25.2384H116.834V17.0095C116.834 14.1052 115.153 12.2709 112.095 12.2709C110.185 12.2709 108.707 13.2136 108.07 14.6657C107.408 13.2136 106.083 12.2709 104.172 12.2709C102.363 12.2709 101.09 13.0862 100.453 14.1307L100.198 12.6531H97.3446V25.2384H100.453Z"
            fill="#2C3137"></path>
          <path
            d="M119.146 18.9203C119.146 22.8436 121.974 25.5441 125.872 25.5441C129.77 25.5441 132.598 22.8436 132.598 18.9203C132.598 14.9969 129.77 12.2964 125.872 12.2964C121.974 12.2964 119.146 14.9969 119.146 18.9203ZM122.254 18.9203C122.254 16.6274 123.732 15.0733 125.872 15.0733C128.012 15.0733 129.49 16.6274 129.49 18.9203C129.49 21.2131 128.012 22.7672 125.872 22.7672C123.732 22.7672 122.254 21.2131 122.254 18.9203Z"
            fill="#2C3137"></path>
          <path d="M138.195 25.2384V6.284H135.112V25.2384H138.195Z" fill="#2C3137"></path>
          <path
            d="M140.717 18.9203C140.717 22.8436 143.545 25.5441 147.442 25.5441C151.34 25.5441 154.168 22.8436 154.168 18.9203C154.168 14.9969 151.34 12.2964 147.442 12.2964C143.545 12.2964 140.717 14.9969 140.717 18.9203ZM143.825 18.9203C143.825 16.6274 145.302 15.0733 147.442 15.0733C149.582 15.0733 151.06 16.6274 151.06 18.9203C151.06 21.2131 149.582 22.7672 147.442 22.7672C145.302 22.7672 143.825 21.2131 143.825 18.9203Z"
            fill="#2C3137"></path>
          <path
            d="M155.918 18.6655C155.918 22.3086 158.262 24.9836 161.829 24.9836C163.638 24.9836 165.192 24.2448 165.982 23.0729V25.162C165.982 27.251 164.606 28.6013 162.466 28.6013C160.555 28.6013 159.307 27.6332 159.103 26.0027H155.995C156.377 29.3656 158.848 31.4292 162.466 31.4292C166.542 31.4292 169.064 28.8051 169.064 24.6015V12.6531H166.185L166.007 14.3855C165.268 13.0352 163.791 12.2455 161.905 12.2455C158.313 12.2455 155.918 14.9969 155.918 18.6655ZM159.052 18.5891C159.052 16.5255 160.377 14.9714 162.44 14.9714C164.606 14.9714 165.905 16.4491 165.905 18.5891C165.905 20.78 164.58 22.2831 162.44 22.2831C160.402 22.2831 159.052 20.7036 159.052 18.5891Z"
            fill="#2C3137"></path>
          <path
            d="M171.185 31.0725C171.873 31.2508 172.638 31.3527 173.504 31.3527C175.567 31.3527 176.892 30.3846 177.835 28.0408L184 12.6531H180.79L177.376 21.8246L174.141 12.6531H170.854L175.924 25.7734L175.567 26.716C175.032 28.1937 174.268 28.4739 173.045 28.4739H171.185V31.0725Z"
            fill="#2C3137"></path>
        </g>
      </g>
    </g>
  </g>
  <defs>
    <linearGradient id="paint0_linear_1_1938" x1="38.9992" y1="0.826661" x2="5.26531" y2="28.2193"
      gradientUnits="userSpaceOnUse">
      <stop stop-color="#B453DF"></stop>
      <stop offset="1" stop-color="#761FC5"></stop>
    </linearGradient>
    <clipPath id="clip0_1_1938">
      <rect width="1440" height="3899" fill="white" transform="translate(-156 -28)"></rect>
    </clipPath>
  </defs>
</svg>