<svg width="178" height="40" viewBox="0 0 178 40" fill="none" xmlns="http://www.w3.org/2000/svg">
<path fill-rule="evenodd" clip-rule="evenodd" d="M31.9707 29.333C31.4367 30.2696 30.8055 31.1505 30.0874 31.96L30.1073 31.9798L29.441 32.6456C26.4719 35.6177 22.5172 37.2556 18.3063 37.2556C14.1124 37.2556 10.169 35.6298 7.20351 32.6794C4.23824 29.729 2.60431 25.8051 2.60431 21.6324C2.60431 21.3249 2.61372 21.0117 2.63275 20.7013C2.63468 20.6592 2.63746 20.616 2.64024 20.5717L2.64109 20.5594C2.64323 20.5313 2.64494 20.503 2.64687 20.4739L2.64794 20.4598C2.65264 20.3958 2.6582 20.3309 2.66397 20.2662C2.66868 20.2134 2.67338 20.1571 2.67916 20.1007C2.6875 20.0179 2.69605 19.9332 2.70546 19.8488C2.71102 19.7998 2.71679 19.7451 2.72449 19.6915C2.73197 19.623 2.74224 19.5458 2.75272 19.4688C2.75935 19.4256 2.76491 19.3843 2.77175 19.3417C2.78116 19.2713 2.79335 19.1932 2.8066 19.1151C2.81323 19.0739 2.82072 19.0279 2.82841 18.9826C2.83504 18.9451 2.84146 18.9056 2.84916 18.8671C2.85771 18.8171 2.86797 18.7598 2.87845 18.7043C2.88786 18.6556 2.89813 18.6017 2.9086 18.5483C2.92101 18.4873 2.93319 18.426 2.94731 18.3641C3.03712 17.9381 3.14767 17.5103 3.27426 17.0937L3.27811 17.0824C3.29415 17.0279 3.31126 16.9724 3.32922 16.9179C3.34333 16.8717 3.35852 16.8239 3.37455 16.7758C3.4633 16.5032 3.56252 16.2277 3.66751 15.9607C3.68162 15.9241 3.69681 15.8845 3.71284 15.846C3.72888 15.8045 3.74599 15.7624 3.76395 15.719C3.78469 15.6673 3.80821 15.6109 3.8328 15.5537C3.85077 15.5103 3.87151 15.4624 3.89246 15.4143L3.90187 15.3928C3.93117 15.3279 3.9594 15.263 3.98869 15.1981C4.0105 15.1503 4.03231 15.103 4.05498 15.0551C4.45079 14.2051 4.93086 13.3834 5.48084 12.6124L5.5698 12.4903C5.63224 12.4047 5.69447 12.3209 5.75691 12.2383C5.78706 12.1996 5.81828 12.1573 5.85035 12.1169C5.91942 12.0286 5.98849 11.9411 6.0582 11.8545C6.09883 11.8047 6.14053 11.753 6.18308 11.7032C6.22093 11.6562 6.26434 11.6064 6.30689 11.5556C6.34838 11.5058 6.39179 11.456 6.43541 11.4071C6.48352 11.3515 6.5327 11.2951 6.58274 11.2396L4.73904 9.4043C1.68011 12.7562 0 17.0834 0 21.6324C0 26.4981 1.90421 31.0715 5.36174 34.512C8.81947 37.9524 13.4159 39.8468 18.3063 39.8468C23.2117 39.8468 27.8193 37.9409 31.2789 34.482C32.2664 33.4956 33.137 32.4011 33.8711 31.2239L31.9707 29.333Z" fill="#888888"/>
<path fill-rule="evenodd" clip-rule="evenodd" d="M8.54365 31.3469C11.1507 33.9411 14.6181 35.3703 18.3064 35.3703C18.4216 35.3703 18.5369 35.3684 18.653 35.3656C18.7107 35.3648 18.7665 35.3628 18.8232 35.3609H18.8317C18.9169 35.3571 19.0009 35.3535 19.086 35.3486C19.154 35.345 19.2211 35.3411 19.2881 35.3365C19.3231 35.3337 19.3524 35.3318 19.3807 35.3299L19.4271 35.326C19.4884 35.3214 19.5517 35.3158 19.6142 35.3092C19.67 35.3045 19.7217 35.2996 19.7748 35.2941C19.8135 35.2903 19.8466 35.2867 19.8787 35.2828L19.9486 35.2754C19.994 35.2696 20.0395 35.2641 20.0857 35.2575C20.2557 35.2367 20.424 35.2124 20.5876 35.1852C20.6337 35.1775 20.6791 35.1692 20.7244 35.1616L20.7396 35.1588C20.7764 35.1522 20.8114 35.1465 20.8474 35.1399L20.8653 35.1362C20.9126 35.1277 20.9599 35.1184 21.006 35.1088C21.1309 35.0845 21.2517 35.0601 21.3728 35.0326C21.454 35.0148 21.5353 34.9952 21.6157 34.9754L21.626 34.9726C21.6467 34.9679 21.6666 34.9631 21.6875 34.9575C21.7478 34.9426 21.8017 34.9284 21.8556 34.9143C21.9029 34.902 21.9473 34.8907 21.9908 34.8786C22.0295 34.8682 22.0626 34.8588 22.0958 34.8494C22.1278 34.8401 22.1533 34.8335 22.1779 34.8258L22.1969 34.8203C22.2309 34.8109 22.2649 34.8005 22.2989 34.7901C22.3556 34.7733 22.4056 34.7582 22.4548 34.7422C22.4946 34.7301 22.5305 34.7188 22.5673 34.7075C22.6834 34.6699 22.7978 34.6313 22.9122 34.5907C22.9443 34.5796 22.9744 34.5692 23.0037 34.5579L23.0264 34.5505C23.0672 34.5362 23.1029 34.5231 23.138 34.509C23.1947 34.4884 23.2458 34.4697 23.2969 34.4488C23.3403 34.4328 23.3771 34.4188 23.4138 34.4037C23.4848 34.3756 23.5481 34.3501 23.6125 34.3237L23.8043 34.242C23.8646 34.2167 23.9232 34.1911 23.9799 34.165C24.0141 34.1499 24.0423 34.1367 24.0716 34.1235L24.099 34.1114C24.1454 34.0896 24.1935 34.0671 24.2407 34.0445C24.5309 33.9073 24.8172 33.7588 25.0942 33.6026C25.1243 33.5856 25.1528 33.5688 25.181 33.5526C25.2453 33.5162 25.3086 33.4786 25.3719 33.4418L25.6876 33.2482C25.8274 33.1599 25.9711 33.0648 26.127 32.9586C26.1695 32.9284 26.213 32.8984 26.2555 32.8684L26.2735 32.856C26.3055 32.8335 26.3376 32.8109 26.3688 32.7875L26.3783 32.7807C26.402 32.7639 26.4255 32.7469 26.4482 32.7301L26.4567 32.7235C26.4965 32.6954 26.5361 32.666 26.575 32.6371C26.6192 32.6041 26.6618 32.5722 26.7035 32.5403C26.7326 32.5175 26.7574 32.4977 26.7828 32.4782L26.8121 32.4556C26.8555 32.4218 26.8989 32.3869 26.9426 32.3522C26.9879 32.3162 27.0313 32.2805 27.0749 32.245L27.0861 32.2356C27.1692 32.1677 27.2516 32.0982 27.3337 32.0269C27.3583 32.0052 27.3837 31.9835 27.4092 31.9618L25.5629 30.1245C23.5415 31.8388 20.9787 32.7779 18.3064 32.7779C12.1299 32.7779 7.10538 27.7788 7.10538 21.6333C7.10538 18.6386 8.28277 15.8271 10.4203 13.719C11.424 12.7299 12.6249 11.9269 13.9225 11.3758L11.9644 9.42773C10.7162 10.0718 9.57648 10.8992 8.5738 11.8911C5.94682 14.489 4.5 17.9484 4.5 21.6333C4.5 25.3031 5.93655 28.7528 8.54365 31.3469Z" fill="#888888"/>
<path fill-rule="evenodd" clip-rule="evenodd" d="M36.9707 18.2138C36.9707 13.3487 35.0667 8.77553 31.6089 5.33511C28.1512 1.89468 23.5548 0 18.6646 0C13.7589 0 9.15118 1.90489 5.69174 5.36511C4.70424 6.35043 3.83392 7.44596 3.09961 8.62298L4.99997 10.514C5.53392 9.57745 6.16602 8.6966 6.88323 7.88681L6.86356 7.86723L7.52966 7.20149C10.4988 4.2283 14.4535 2.59149 18.6646 2.59149C22.8583 2.59149 26.8017 4.21702 29.7672 7.16766C32.7324 10.1181 34.3664 14.0409 34.3664 18.2138C34.3664 18.523 34.3567 18.8362 34.3381 19.1455C34.3362 19.1868 34.3332 19.2311 34.3304 19.2753C34.3285 19.3062 34.3257 19.3383 34.3238 19.3713L34.3229 19.3862C34.318 19.4511 34.3125 19.516 34.3069 19.5798C34.3022 19.6334 34.2973 19.6909 34.2917 19.7472C34.2832 19.8281 34.2746 19.9136 34.2652 19.9983C34.2594 20.0472 34.2539 20.1009 34.2464 20.1553C34.2387 20.224 34.2284 20.3011 34.2179 20.3781C34.2113 20.4215 34.2055 20.4628 34.1991 20.5043C34.1897 20.5757 34.1773 20.6536 34.1641 20.7317C34.1574 20.773 34.1499 20.8183 34.1425 20.8643C34.1358 20.9028 34.1292 20.9413 34.1215 20.98C34.114 21.0298 34.1027 21.087 34.0922 21.1426C34.0828 21.1915 34.0723 21.2451 34.0612 21.2987C34.0497 21.3589 34.0375 21.4209 34.0234 21.483C33.9327 21.9089 33.823 22.3377 33.6964 22.7534C33.6784 22.8115 33.6613 22.8698 33.6414 22.9291C33.6273 22.9751 33.6124 23.0221 33.5961 23.0711C33.5063 23.3455 33.4081 23.6202 33.3032 23.8864C33.289 23.923 33.2741 23.9615 33.2589 24C33.2418 24.0423 33.2249 24.0847 33.2069 24.1279C33.186 24.1796 33.1616 24.237 33.1379 24.2934C33.1199 24.3366 33.0992 24.3847 33.0782 24.4326L33.069 24.4543C33.0395 24.5189 33.0113 24.584 32.982 24.6479C32.9602 24.6957 32.9386 24.7438 32.9157 24.7909C32.5199 25.6409 32.0398 26.4636 31.4898 27.2336L31.4019 27.3557C31.3386 27.4423 31.2762 27.526 31.2138 27.6079C31.1836 27.6472 31.1524 27.6896 31.1203 27.73C31.0512 27.8183 30.9824 27.9057 30.9125 27.9923C30.8718 28.0421 30.8301 28.0938 30.7878 28.1436C30.7519 28.1879 30.7121 28.2349 30.6725 28.2819L30.6648 28.2904C30.6214 28.3402 30.5789 28.3911 30.5353 28.44C30.4871 28.4953 30.438 28.5517 30.3879 28.6072L32.2316 30.4428C35.2906 27.0906 36.9707 22.7636 36.9707 18.2138Z" fill="#888888"/>
<path fill-rule="evenodd" clip-rule="evenodd" d="M23.0474 28.4708L25.0055 30.4191C26.2539 29.7749 27.3934 28.9474 28.3961 27.9555C31.0231 25.3576 32.4699 21.8974 32.4699 18.2127C32.4699 14.5436 31.0336 11.094 28.4265 8.49975C25.8192 5.90571 22.352 4.47656 18.6638 4.47656C18.5485 4.47656 18.4331 4.47826 18.3169 4.48103C18.2592 4.48209 18.2025 4.48295 18.1467 4.48571H18.1384C18.0533 4.48954 17.9692 4.49337 17.8841 4.49805C17.8159 4.50188 17.749 4.50571 17.6818 4.51018C17.6468 4.51209 17.6177 4.51507 17.5893 4.51678L17.542 4.52061C17.4815 4.52529 17.4182 4.53103 17.356 4.53656C17.3001 4.54231 17.2482 4.54699 17.1952 4.55252C17.1564 4.55635 17.1233 4.56018 17.0904 4.5638L17.0365 4.56954C17.0299 4.57039 17.0241 4.57146 17.0185 4.57231C16.973 4.57699 16.9296 4.58273 16.8842 4.58826C16.7142 4.60997 16.5459 4.63443 16.3826 4.66167C16.3362 4.66912 16.2908 4.67656 16.2455 4.68507L16.2303 4.68805C16.1944 4.6938 16.1604 4.70018 16.1264 4.70678L16.1037 4.71061C16.0584 4.71912 16.0131 4.72741 15.9675 4.73699C15.8392 4.76124 15.7182 4.78678 15.5972 4.81401C15.5159 4.83188 15.4346 4.85167 15.3544 4.87124L15.344 4.87422C15.3232 4.87784 15.3033 4.88358 15.2826 4.88826C15.2221 4.90337 15.1682 4.91741 15.1143 4.93146C15.0679 4.9438 15.0236 4.95507 14.9792 4.96826C14.9405 4.97848 14.9073 4.98784 14.8733 4.99741C14.8412 5.00678 14.8166 5.01337 14.7921 5.02082L14.7732 5.02656C14.7392 5.03592 14.7052 5.04529 14.671 5.05656C14.6144 5.07252 14.5643 5.08848 14.5151 5.10443C14.4756 5.11678 14.4397 5.12805 14.4027 5.13933C14.2865 5.17699 14.1721 5.2155 14.058 5.25592C14.0267 5.26614 13.9983 5.27656 13.969 5.28699L13.9425 5.29635C13.9038 5.31039 13.8698 5.32273 13.8349 5.33592C13.7753 5.35741 13.7244 5.3772 13.6733 5.39699C13.6307 5.41295 13.5939 5.42805 13.5561 5.44295C13.4851 5.47018 13.4218 5.49656 13.3576 5.52295L13.1658 5.60486C13.1053 5.63018 13.0476 5.6555 12.9901 5.68188C12.9569 5.69677 12.9276 5.70997 12.8983 5.72316L12.8709 5.7355C12.8245 5.7572 12.7764 5.77975 12.7292 5.80209C12.439 5.93954 12.1518 6.08805 11.876 6.24422C11.8447 6.26103 11.8174 6.27699 11.7889 6.29401C11.7284 6.32869 11.6679 6.36358 11.6085 6.39933L11.4089 6.51975C11.3685 6.54507 11.3249 6.57231 11.2824 6.59869C11.1417 6.68699 10.998 6.78188 10.844 6.88805C10.8042 6.9155 10.7644 6.94273 10.7257 6.96997L10.7003 6.98784C10.6644 7.01316 10.6323 7.03571 10.6002 7.05933L10.587 7.06869C10.5652 7.08465 10.5436 7.10082 10.5217 7.11677L10.5132 7.12316C10.4734 7.15146 10.4339 7.1806 10.3952 7.20975C10.3507 7.24252 10.309 7.27465 10.2675 7.30656C10.2371 7.32912 10.2127 7.3489 10.1882 7.36763L10.1578 7.39124C10.1144 7.42507 10.071 7.4589 10.0276 7.49465C9.97838 7.53316 9.93113 7.57273 9.88387 7.61124C9.79983 7.6789 9.71857 7.74848 9.63625 7.81997C9.6108 7.84167 9.58621 7.86316 9.56055 7.88486L11.4072 9.72209C13.4284 8.00805 15.9913 7.06784 18.6638 7.06784C24.8402 7.06784 29.8645 12.0681 29.8645 18.2127C29.8645 21.2083 28.6872 24.0187 26.5496 26.1276C25.5461 27.1168 24.345 27.9198 23.0474 28.4708Z" fill="#888888"/>
<path d="M10.3793 22V17.6364H11.3018V21.2393H13.1726V22H10.3793ZM17.6236 19.8182C17.6236 20.294 17.5334 20.6989 17.353 21.0327C17.174 21.3665 16.9297 21.6214 16.62 21.7976C16.3118 21.9723 15.9652 22.0597 15.5803 22.0597C15.1925 22.0597 14.8445 21.9716 14.5362 21.7955C14.228 21.6193 13.9844 21.3643 13.8054 21.0305C13.6264 20.6967 13.5369 20.2926 13.5369 19.8182C13.5369 19.3423 13.6264 18.9375 13.8054 18.6037C13.9844 18.2699 14.228 18.0156 14.5362 17.8409C14.8445 17.6648 15.1925 17.5767 15.5803 17.5767C15.9652 17.5767 16.3118 17.6648 16.62 17.8409C16.9297 18.0156 17.174 18.2699 17.353 18.6037C17.5334 18.9375 17.6236 19.3423 17.6236 19.8182ZM16.6882 19.8182C16.6882 19.5099 16.642 19.25 16.5497 19.0384C16.4588 18.8267 16.3303 18.6662 16.1641 18.5568C15.9979 18.4474 15.8033 18.3928 15.5803 18.3928C15.3572 18.3928 15.1626 18.4474 14.9964 18.5568C14.8303 18.6662 14.701 18.8267 14.6087 19.0384C14.5178 19.25 14.4723 19.5099 14.4723 19.8182C14.4723 20.1264 14.5178 20.3864 14.6087 20.598C14.701 20.8097 14.8303 20.9702 14.9964 21.0795C15.1626 21.1889 15.3572 21.2436 15.5803 21.2436C15.8033 21.2436 15.9979 21.1889 16.1641 21.0795C16.3303 20.9702 16.4588 20.8097 16.5497 20.598C16.642 20.3864 16.6882 20.1264 16.6882 19.8182ZM21.2005 19.0469C21.1706 18.9432 21.1287 18.8516 21.0748 18.772C21.0208 18.6911 20.9547 18.6229 20.8766 18.5675C20.7999 18.5107 20.7118 18.4673 20.6124 18.4375C20.5144 18.4077 20.4057 18.3928 20.2864 18.3928C20.0634 18.3928 19.8674 18.4482 19.6983 18.5589C19.5307 18.6697 19.4 18.831 19.3063 19.0426C19.2125 19.2528 19.1657 19.5099 19.1657 19.8139C19.1657 20.1179 19.2118 20.3764 19.3042 20.5895C19.3965 20.8026 19.5272 20.9652 19.6962 21.0774C19.8652 21.1882 20.0648 21.2436 20.2949 21.2436C20.5037 21.2436 20.682 21.2067 20.8297 21.1328C20.9789 21.0575 21.0925 20.9517 21.1706 20.8153C21.2502 20.679 21.29 20.5178 21.29 20.3317L21.4775 20.3594H20.3525V19.6648H22.1784V20.2145C22.1784 20.598 22.0975 20.9276 21.9355 21.2031C21.7736 21.4773 21.5506 21.6889 21.2665 21.8381C20.9824 21.9858 20.6571 22.0597 20.2907 22.0597C19.8816 22.0597 19.5222 21.9695 19.2125 21.7891C18.9029 21.6072 18.6614 21.3494 18.4881 21.0156C18.3162 20.6804 18.2303 20.2827 18.2303 19.8224C18.2303 19.4687 18.2814 19.1534 18.3837 18.8764C18.4874 18.598 18.6323 18.3622 18.8184 18.169C19.0044 17.9759 19.2211 17.8288 19.4682 17.728C19.7154 17.6271 19.9831 17.5767 20.2715 17.5767C20.5186 17.5767 20.7488 17.6129 20.9618 17.6854C21.1749 17.7564 21.3638 17.8572 21.5286 17.9879C21.6948 18.1186 21.8304 18.2741 21.9355 18.4545C22.0407 18.6335 22.1081 18.831 22.138 19.0469H21.2005ZM26.8814 19.8182C26.8814 20.294 26.7912 20.6989 26.6108 21.0327C26.4318 21.3665 26.1875 21.6214 25.8778 21.7976C25.5696 21.9723 25.223 22.0597 24.8381 22.0597C24.4503 22.0597 24.1023 21.9716 23.794 21.7955C23.4858 21.6193 23.2422 21.3643 23.0632 21.0305C22.8842 20.6967 22.7947 20.2926 22.7947 19.8182C22.7947 19.3423 22.8842 18.9375 23.0632 18.6037C23.2422 18.2699 23.4858 18.0156 23.794 17.8409C24.1023 17.6648 24.4503 17.5767 24.8381 17.5767C25.223 17.5767 25.5696 17.6648 25.8778 17.8409C26.1875 18.0156 26.4318 18.2699 26.6108 18.6037C26.7912 18.9375 26.8814 19.3423 26.8814 19.8182ZM25.946 19.8182C25.946 19.5099 25.8999 19.25 25.8075 19.0384C25.7166 18.8267 25.5881 18.6662 25.4219 18.5568C25.2557 18.4474 25.0611 18.3928 24.8381 18.3928C24.6151 18.3928 24.4205 18.4474 24.2543 18.5568C24.0881 18.6662 23.9588 18.8267 23.8665 19.0384C23.7756 19.25 23.7301 19.5099 23.7301 19.8182C23.7301 20.1264 23.7756 20.3864 23.8665 20.598C23.9588 20.8097 24.0881 20.9702 24.2543 21.0795C24.4205 21.1889 24.6151 21.2436 24.8381 21.2436C25.0611 21.2436 25.2557 21.1889 25.4219 21.0795C25.5881 20.9702 25.7166 20.8097 25.8075 20.598C25.8999 20.3864 25.946 20.1264 25.946 19.8182Z" fill="#888888"/>
<path d="M48.8883 28.4238V10.9693H55.2804C56.519 10.9693 57.5446 11.1738 58.3571 11.5829C59.1696 11.9863 59.7775 12.5346 60.1809 13.2278C60.5843 13.9153 60.786 14.6909 60.786 15.5545C60.786 16.2818 60.6525 16.8954 60.3855 17.3954C60.1184 17.8897 59.7605 18.2875 59.3116 18.5886C58.8684 18.8841 58.3798 19.1 57.8457 19.2363V19.4068C58.4252 19.4352 58.9906 19.6227 59.5417 19.9693C60.0985 20.3102 60.5588 20.796 60.9224 21.4267C61.286 22.0574 61.4679 22.8244 61.4679 23.7278C61.4679 24.6199 61.2576 25.421 60.8372 26.1312C60.4224 26.8358 59.7804 27.3954 58.911 27.8102C58.0417 28.2193 56.9309 28.4238 55.5787 28.4238H48.8883ZM51.5218 26.1653H55.323C56.5843 26.1653 57.4877 25.921 58.0332 25.4324C58.5787 24.9437 58.8514 24.3329 58.8514 23.6C58.8514 23.0488 58.7122 22.5431 58.4338 22.0829C58.1554 21.6227 57.7576 21.2562 57.2406 20.9835C56.7292 20.7108 56.1213 20.5744 55.4167 20.5744H51.5218V26.1653ZM51.5218 18.5204H55.0502C55.6412 18.5204 56.1724 18.4068 56.644 18.1795C57.1213 17.9522 57.4991 17.6341 57.7775 17.225C58.0616 16.8102 58.2037 16.3216 58.2037 15.7591C58.2037 15.0375 57.9508 14.4324 57.4451 13.9437C56.9395 13.4551 56.1639 13.2108 55.1184 13.2108H51.5218V18.5204ZM63.1869 28.4238V15.3329H65.65V17.4125H65.7863C66.025 16.7079 66.4454 16.1539 67.0477 15.7505C67.6556 15.3414 68.3431 15.1369 69.1102 15.1369C69.2693 15.1369 69.4568 15.1426 69.6727 15.1539C69.8943 15.1653 70.0676 15.1795 70.1926 15.1966V17.6341C70.0903 17.6056 69.9085 17.5744 69.6471 17.5403C69.3858 17.5005 69.1244 17.4806 68.863 17.4806C68.2608 17.4806 67.7238 17.6085 67.2522 17.8642C66.7863 18.1142 66.417 18.4636 66.1443 18.9125C65.8716 19.3556 65.7352 19.8613 65.7352 20.4295V28.4238H63.1869ZM74.8903 28.7136C74.0608 28.7136 73.3108 28.5602 72.6403 28.2534C71.9699 27.9409 71.4386 27.4892 71.0466 26.8983C70.6602 26.3074 70.467 25.5829 70.467 24.725C70.467 23.9863 70.6091 23.3784 70.8931 22.9011C71.1772 22.4238 71.5608 22.046 72.0437 21.7676C72.5267 21.4892 73.0664 21.2789 73.663 21.1369C74.2596 20.9949 74.8676 20.8869 75.4869 20.813C76.271 20.7221 76.9074 20.6483 77.396 20.5914C77.8846 20.5289 78.2397 20.4295 78.4613 20.2931C78.6829 20.1568 78.7937 19.9352 78.7937 19.6284V19.5687C78.7937 18.8244 78.5835 18.2477 78.163 17.8386C77.7483 17.4295 77.1289 17.225 76.3051 17.225C75.4471 17.225 74.771 17.4153 74.2767 17.796C73.788 18.171 73.45 18.5886 73.2625 19.0488L70.8676 18.5034C71.1517 17.7079 71.5664 17.0659 72.1119 16.5772C72.663 16.0829 73.2966 15.725 74.0125 15.5034C74.7284 15.2761 75.4812 15.1625 76.271 15.1625C76.7937 15.1625 77.3477 15.225 77.9329 15.35C78.5238 15.4693 79.075 15.6909 79.5863 16.0147C80.1034 16.3386 80.5267 16.8017 80.8562 17.4039C81.1858 18.0005 81.3505 18.7761 81.3505 19.7306V28.4238H78.8619V26.6341H78.7596C78.5949 26.9636 78.3477 27.2875 78.0181 27.6056C77.6886 27.9238 77.2653 28.188 76.7483 28.3983C76.2312 28.6085 75.6119 28.7136 74.8903 28.7136ZM75.4443 26.6681C76.1488 26.6681 76.7511 26.5289 77.2511 26.2505C77.7568 25.9721 78.1403 25.6085 78.4017 25.1596C78.6687 24.7051 78.8022 24.2193 78.8022 23.7022V22.0147C78.7113 22.1056 78.5352 22.1909 78.2738 22.2704C78.0181 22.3443 77.7255 22.4096 77.396 22.4664C77.0664 22.5176 76.7454 22.5659 76.4329 22.6113C76.1204 22.6511 75.8591 22.6852 75.6488 22.7136C75.1545 22.7761 74.7028 22.8812 74.2937 23.0289C73.8903 23.1767 73.5664 23.3897 73.3221 23.6681C73.0835 23.9409 72.9642 24.3045 72.9642 24.7591C72.9642 25.3897 73.1971 25.867 73.663 26.1909C74.1289 26.5091 74.7227 26.6681 75.4443 26.6681ZM86.093 20.6511V28.4238H83.5447V15.3329H85.9907V17.4636H86.1527C86.4538 16.7704 86.9254 16.2136 87.5674 15.7931C88.2152 15.3727 89.0305 15.1625 90.0135 15.1625C90.9055 15.1625 91.6868 15.35 92.3572 15.725C93.0277 16.0943 93.5476 16.6454 93.9169 17.3784C94.2862 18.1113 94.4708 19.0176 94.4708 20.0971V28.4238H91.9226V20.4039C91.9226 19.4551 91.6754 18.7136 91.1811 18.1795C90.6868 17.6397 90.0078 17.3699 89.1441 17.3699C88.5532 17.3699 88.0277 17.4977 87.5674 17.7534C87.1129 18.0091 86.7521 18.3841 86.4851 18.8784C86.2237 19.367 86.093 19.9579 86.093 20.6511ZM101.589 28.6795C100.532 28.6795 99.589 28.4096 98.7595 27.8699C97.9356 27.3244 97.2879 26.5488 96.8163 25.5431C96.3504 24.5318 96.1174 23.3187 96.1174 21.9039C96.1174 20.4892 96.3532 19.2789 96.8248 18.2733C97.3021 17.2676 97.9555 16.4977 98.7851 15.9636C99.6146 15.4295 100.555 15.1625 101.606 15.1625C102.419 15.1625 103.072 15.2988 103.566 15.5716C104.066 15.8386 104.453 16.1511 104.725 16.5091C105.004 16.867 105.22 17.1824 105.373 17.4551H105.527V10.9693H108.075V28.4238H105.586V26.3869H105.373C105.22 26.6653 104.998 26.9835 104.708 27.3414C104.424 27.6994 104.032 28.0119 103.532 28.2789C103.032 28.546 102.384 28.6795 101.589 28.6795ZM102.152 26.5062C102.884 26.5062 103.504 26.313 104.009 25.9267C104.521 25.5346 104.907 24.992 105.169 24.2988C105.436 23.6056 105.569 22.7988 105.569 21.8784C105.569 20.9693 105.438 20.1738 105.177 19.492C104.916 18.8102 104.532 18.2789 104.027 17.8983C103.521 17.5176 102.896 17.3272 102.152 17.3272C101.384 17.3272 100.745 17.5261 100.234 17.9238C99.7226 18.3216 99.3362 18.8642 99.0748 19.5517C98.8191 20.2392 98.6913 21.0147 98.6913 21.8784C98.6913 22.7534 98.822 23.5403 99.0833 24.2392C99.3447 24.938 99.7311 25.492 100.242 25.9011C100.759 26.3045 101.396 26.5062 102.152 26.5062ZM129.956 10.9693V28.4238H127.536L118.663 15.6227H118.502V28.4238H115.868V10.9693H118.306L127.186 23.7875H127.348V10.9693H129.956ZM136.203 28.7136C135.373 28.7136 134.623 28.5602 133.953 28.2534C133.282 27.9409 132.751 27.4892 132.359 26.8983C131.973 26.3074 131.78 25.5829 131.78 24.725C131.78 23.9863 131.922 23.3784 132.206 22.9011C132.49 22.4238 132.873 22.046 133.356 21.7676C133.839 21.4892 134.379 21.2789 134.976 21.1369C135.572 20.9949 136.18 20.8869 136.799 20.813C137.583 20.7221 138.22 20.6483 138.708 20.5914C139.197 20.5289 139.552 20.4295 139.774 20.2931C139.995 20.1568 140.106 19.9352 140.106 19.6284V19.5687C140.106 18.8244 139.896 18.2477 139.476 17.8386C139.061 17.4295 138.441 17.225 137.618 17.225C136.76 17.225 136.083 17.4153 135.589 17.796C135.101 18.171 134.762 18.5886 134.575 19.0488L132.18 18.5034C132.464 17.7079 132.879 17.0659 133.424 16.5772C133.976 16.0829 134.609 15.725 135.325 15.5034C136.041 15.2761 136.794 15.1625 137.583 15.1625C138.106 15.1625 138.66 15.225 139.245 15.35C139.836 15.4693 140.387 15.6909 140.899 16.0147C141.416 16.3386 141.839 16.8017 142.169 17.4039C142.498 18.0005 142.663 18.7761 142.663 19.7306V28.4238H140.174V26.6341H140.072C139.907 26.9636 139.66 27.2875 139.331 27.6056C139.001 27.9238 138.578 28.188 138.061 28.3983C137.544 28.6085 136.924 28.7136 136.203 28.7136ZM136.757 26.6681C137.461 26.6681 138.064 26.5289 138.564 26.2505C139.069 25.9721 139.453 25.6085 139.714 25.1596C139.981 24.7051 140.115 24.2193 140.115 23.7022V22.0147C140.024 22.1056 139.848 22.1909 139.586 22.2704C139.331 22.3443 139.038 22.4096 138.708 22.4664C138.379 22.5176 138.058 22.5659 137.745 22.6113C137.433 22.6511 137.172 22.6852 136.961 22.7136C136.467 22.7761 136.015 22.8812 135.606 23.0289C135.203 23.1767 134.879 23.3897 134.635 23.6681C134.396 23.9409 134.277 24.3045 134.277 24.7591C134.277 25.3897 134.51 25.867 134.976 26.1909C135.441 26.5091 136.035 26.6681 136.757 26.6681ZM144.857 28.4238V15.3329H147.303V17.4636H147.465C147.738 16.742 148.184 16.1795 148.803 15.7761C149.423 15.367 150.164 15.1625 151.028 15.1625C151.903 15.1625 152.636 15.367 153.227 15.7761C153.823 16.1852 154.263 16.7477 154.548 17.4636H154.684C154.996 16.7647 155.494 16.2079 156.175 15.7931C156.857 15.3727 157.67 15.1625 158.613 15.1625C159.8 15.1625 160.769 15.5346 161.519 16.2789C162.275 17.0233 162.653 18.1454 162.653 19.6454V28.4238H160.104V19.8841C160.104 18.9977 159.863 18.3556 159.38 17.9579C158.897 17.5602 158.32 17.3613 157.65 17.3613C156.82 17.3613 156.175 17.617 155.715 18.1284C155.255 18.6341 155.025 19.2846 155.025 20.0801V28.4238H152.485V19.7221C152.485 19.0119 152.263 18.4409 151.82 18.0091C151.377 17.5772 150.8 17.3613 150.09 17.3613C149.607 17.3613 149.161 17.4892 148.752 17.7449C148.349 17.9949 148.022 18.3443 147.772 18.7931C147.528 19.242 147.406 19.7619 147.406 20.3528V28.4238H144.857ZM170.51 28.688C169.22 28.688 168.11 28.4125 167.178 27.8613C166.252 27.3045 165.536 26.5233 165.03 25.5176C164.53 24.5062 164.28 23.3216 164.28 21.9636C164.28 20.6227 164.53 19.4409 165.03 18.4181C165.536 17.3954 166.24 16.5971 167.144 16.0233C168.053 15.4494 169.115 15.1625 170.331 15.1625C171.07 15.1625 171.786 15.2846 172.479 15.5289C173.172 15.7733 173.794 16.1568 174.345 16.6795C174.897 17.2022 175.331 17.8812 175.649 18.7164C175.968 19.546 176.127 20.5545 176.127 21.742V22.6454H165.72V20.7363H173.63C173.63 20.0659 173.493 19.4721 173.22 18.9551C172.948 18.4324 172.564 18.0204 172.07 17.7193C171.581 17.4181 171.007 17.2676 170.348 17.2676C169.632 17.2676 169.007 17.4437 168.473 17.796C167.945 18.1426 167.536 18.5971 167.246 19.1596C166.962 19.7164 166.82 20.3216 166.82 20.975V22.4664C166.82 23.3414 166.973 24.0858 167.28 24.6994C167.593 25.313 168.027 25.7818 168.584 26.1056C169.141 26.4238 169.791 26.5829 170.536 26.5829C171.019 26.5829 171.459 26.5147 171.857 26.3784C172.255 26.2363 172.598 26.0261 172.888 25.7477C173.178 25.4693 173.399 25.1255 173.553 24.7164L175.965 25.1511C175.772 25.8613 175.425 26.4835 174.925 27.0176C174.431 27.546 173.808 27.9579 173.058 28.2534C172.314 28.5431 171.465 28.688 170.51 28.688Z" fill="white"/>
</svg>
