<svg width="39" height="39" viewBox="0 0 39 39" fill="none" xmlns="http://www.w3.org/2000/svg">
<mask id="path-1-inside-1_1146_21524" fill="white">
<path d="M11.0098 27.9811C11.7991 28.7704 12.7361 29.3965 13.7674 29.8237C14.7987 30.2508 15.904 30.4707 17.0202 30.4707C18.1364 30.4707 19.2417 30.2508 20.273 29.8237C21.3043 29.3965 22.2413 28.7704 23.0306 27.9811C23.8199 27.1918 24.446 26.2548 24.8732 25.2235C25.3003 24.1922 25.5202 23.0869 25.5202 21.9707C25.5202 20.8545 25.3003 19.7492 24.8732 18.7179C24.446 17.6866 23.8199 16.7496 23.0306 15.9603L17.0202 21.9707L11.0098 27.9811Z"/>
</mask>
<path d="M11.0098 27.9811C11.7991 28.7704 12.7361 29.3965 13.7674 29.8237C14.7987 30.2508 15.904 30.4707 17.0202 30.4707C18.1364 30.4707 19.2417 30.2508 20.273 29.8237C21.3043 29.3965 22.2413 28.7704 23.0306 27.9811C23.8199 27.1918 24.446 26.2548 24.8732 25.2235C25.3003 24.1922 25.5202 23.0869 25.5202 21.9707C25.5202 20.8545 25.3003 19.7492 24.8732 18.7179C24.446 17.6866 23.8199 16.7496 23.0306 15.9603L17.0202 21.9707L11.0098 27.9811Z" stroke="#343C44" stroke-width="2" mask="url(#path-1-inside-1_1146_21524)"/>
<mask id="path-2-inside-2_1146_21524" fill="white">
<path d="M18.0815 22.324C17.385 21.6275 16.8326 20.8007 16.4557 19.8908C16.0788 18.9808 15.8848 18.0056 15.8848 17.0207C15.8848 16.0358 16.0788 15.0605 16.4557 14.1505C16.8326 13.2406 17.385 12.4138 18.0815 11.7174C18.7779 11.0209 19.6047 10.4685 20.5146 10.0916C21.4246 9.71466 22.3999 9.52066 23.3848 9.52066C24.3697 9.52066 25.345 9.71466 26.2549 10.0916C27.1648 10.4685 27.9916 11.0209 28.6881 11.7174L23.3848 17.0207L18.0815 22.324Z"/>
</mask>
<path d="M18.0815 22.324C17.385 21.6275 16.8326 20.8007 16.4557 19.8908C16.0788 18.9808 15.8848 18.0056 15.8848 17.0207C15.8848 16.0358 16.0788 15.0605 16.4557 14.1505C16.8326 13.2406 17.385 12.4138 18.0815 11.7174C18.7779 11.0209 19.6047 10.4685 20.5146 10.0916C21.4246 9.71466 22.3999 9.52066 23.3848 9.52066C24.3697 9.52066 25.345 9.71466 26.2549 10.0916C27.1648 10.4685 27.9916 11.0209 28.6881 11.7174L23.3848 17.0207L18.0815 22.324Z" stroke="#343C44" stroke-width="2" mask="url(#path-2-inside-2_1146_21524)"/>
<rect x="3.5" y="3.5" width="32" height="32" stroke="#343C44" stroke-dasharray="2 2"/>
<line x1="31.3536" y1="8.35355" x2="8.35355" y2="31.3536" stroke="#343C44"/>
</svg>
