<svg width="273" height="52" viewBox="0 0 273 52" fill="none" xmlns="http://www.w3.org/2000/svg">
<path fill-rule="evenodd" clip-rule="evenodd" d="M56.0312 4.60971C55.0827 4.61541 54.1321 4.77089 53.2097 5.07926C53.2001 5.08237 53.1911 5.08496 53.1816 5.08859L44.6217 7.97689C38.7175 4.49828 31.6364 3.74887 25.1319 5.92093C25.1086 5.9287 25.0842 5.93751 25.0609 5.94477C16.102 8.96834 9.82317 17.2368 9.43638 26.52C9.41799 26.9594 9.84609 27.2805 10.2628 27.1399L14.9877 25.5456C15.2091 25.4709 15.3698 25.2782 15.4037 25.0471C16.332 18.6724 20.7589 13.4135 26.9578 11.3213C26.9763 11.3156 26.9927 11.3099 27.0108 11.3037C32.8393 9.35705 39.0967 10.6229 43.6303 14.228C43.671 14.2603 43.7253 14.2701 43.7745 14.2536L55.0779 10.4651L55.0875 10.462C56.6914 9.92661 58.4425 10.7636 58.9957 12.3309C59.5494 13.9012 58.6942 15.6193 57.0898 16.1619L57.093 16.1712L6.28636 33.2968C4.044 34.054 2.23506 35.6223 1.19335 37.7145C0.152181 39.8063 0.00488028 42.1665 0.778475 44.3603C1.55207 46.5541 3.15595 48.3235 5.29447 49.3419C7.43298 50.3608 9.83907 50.509 12.0894 49.7482L20.6493 46.8594C26.5535 50.3385 33.6335 51.0884 40.138 48.9159C40.1613 48.9076 40.1857 48.8993 40.209 48.892C49.1689 45.8684 55.4478 37.5995 55.8346 28.3163C55.853 27.8769 55.4249 27.5558 55.0082 27.6964L50.2832 29.2912C50.0618 29.3659 49.9011 29.5585 49.8673 29.7897C48.9385 36.1639 44.5115 41.4233 38.3127 43.5145C38.2946 43.5207 38.2777 43.5269 38.2602 43.5331C32.4327 45.4782 26.1785 44.2144 21.6453 40.6123C21.6047 40.5801 21.5505 40.5703 21.5013 40.5868L10.1925 44.3712C10.1925 44.3712 10.1867 44.3732 10.1829 44.3743C8.57959 44.9096 6.82788 44.0732 6.27524 42.5059C5.721 40.9351 6.57673 39.216 8.18326 38.6733L58.9846 21.5399C62.6576 20.3003 64.9709 16.9284 64.9794 13.3249V13.2938C64.9778 12.3583 64.821 11.4083 64.4925 10.476C63.7184 8.28215 62.1145 6.51279 59.976 5.49439C58.7552 4.9129 57.4453 4.61645 56.1292 4.60971H56.0312Z" fill="url(#paint0_linear_897_2454)"/>
<path d="M82.5742 31.3987C82.5742 25.6332 86.3802 21.5635 91.8819 21.5635C96.9691 21.5635 100.436 24.3897 100.926 28.874H96.3285C95.8009 26.7637 94.2559 25.6709 92.0703 25.6709C89.1311 25.6709 87.1715 27.8942 87.1715 31.3987C87.1715 34.9032 88.9803 37.0889 91.9196 37.0889C94.2183 37.0889 95.8386 35.9584 96.3285 33.9235H100.964C100.398 38.257 96.7807 41.234 91.9196 41.234C86.2671 41.234 82.5742 37.3149 82.5742 31.3987Z" fill="#282834"/>
<path d="M103.292 31.3987C103.292 25.5955 107.475 21.6012 113.241 21.6012C119.006 21.6012 123.189 25.5955 123.189 31.3987C123.189 37.2019 119.006 41.1963 113.241 41.1963C107.475 41.1963 103.292 37.2019 103.292 31.3987ZM107.89 31.3987C107.89 34.7902 110.075 37.0889 113.241 37.0889C116.406 37.0889 118.592 34.7902 118.592 31.3987C118.592 28.0073 116.406 25.7086 113.241 25.7086C110.075 25.7086 107.89 28.0073 107.89 31.3987Z" fill="#282834"/>
<path d="M125.401 35.0917H129.772C129.81 36.712 131.016 37.7295 133.126 37.7295C135.274 37.7295 136.442 36.8628 136.442 35.5062C136.442 34.5641 135.952 33.8858 134.294 33.509L130.941 32.7176C127.587 31.964 125.966 30.3813 125.966 27.4043C125.966 23.7491 129.056 21.5635 133.352 21.5635C137.535 21.5635 140.361 23.9752 140.399 27.5927H136.028C135.99 26.0101 134.935 24.9926 133.164 24.9926C131.355 24.9926 130.3 25.8216 130.3 27.2159C130.3 28.271 131.129 28.9493 132.712 29.3262L136.065 30.1175C139.193 30.8335 140.776 32.2654 140.776 35.1293C140.776 38.8976 137.573 41.234 132.975 41.234C128.34 41.234 125.401 38.7469 125.401 35.0917Z" fill="#282834"/>
<path d="M148.874 40.7441H144.276V22.1287H148.497L148.874 24.3143C149.816 22.7693 151.7 21.5635 154.375 21.5635C157.201 21.5635 159.161 22.9577 160.141 25.1057C161.083 22.9577 163.268 21.5635 166.095 21.5635C170.617 21.5635 173.104 24.2766 173.104 28.5725V40.7441H168.544V29.7784C168.544 27.1029 167.112 25.7086 164.926 25.7086C162.703 25.7086 161.007 27.1406 161.007 30.1929V40.7441H156.41V29.7407C156.41 27.1405 155.016 25.7463 152.83 25.7463C150.645 25.7463 148.874 27.1782 148.874 30.1929V40.7441Z" fill="#282834"/>
<path d="M176.524 31.3987C176.524 25.5955 180.707 21.6012 186.472 21.6012C192.238 21.6012 196.421 25.5955 196.421 31.3987C196.421 37.2019 192.238 41.1963 186.472 41.1963C180.707 41.1963 176.524 37.2019 176.524 31.3987ZM181.121 31.3987C181.121 34.7902 183.307 37.0889 186.472 37.0889C189.638 37.0889 191.823 34.7902 191.823 31.3987C191.823 28.0073 189.638 25.7086 186.472 25.7086C183.307 25.7086 181.121 28.0073 181.121 31.3987Z" fill="#282834"/>
<path d="M204.7 40.7441H200.14V12.708H204.7V40.7441Z" fill="#282834"/>
<path d="M208.429 31.3987C208.429 25.5955 212.612 21.6012 218.378 21.6012C224.143 21.6012 228.326 25.5955 228.326 31.3987C228.326 37.2019 224.143 41.1963 218.378 41.1963C212.612 41.1963 208.429 37.2019 208.429 31.3987ZM213.027 31.3987C213.027 34.7902 215.212 37.0889 218.378 37.0889C221.543 37.0889 223.729 34.7902 223.729 31.3987C223.729 28.0073 221.543 25.7086 218.378 25.7086C215.212 25.7086 213.027 28.0073 213.027 31.3987Z" fill="#282834"/>
<path d="M230.915 31.0219C230.915 25.5955 234.457 21.5258 239.77 21.5258C242.559 21.5258 244.745 22.694 245.837 24.6912L246.101 22.1287H250.359V39.802C250.359 46.0197 246.629 49.9011 240.599 49.9011C235.248 49.9011 231.593 46.8487 231.028 41.8746H235.625C235.927 44.2863 237.773 45.7183 240.599 45.7183C243.765 45.7183 245.8 43.7211 245.8 40.6311V37.541C244.632 39.2745 242.333 40.3673 239.657 40.3673C234.382 40.3673 230.915 36.4106 230.915 31.0219ZM235.55 30.9088C235.55 34.0365 237.547 36.3729 240.562 36.3729C243.727 36.3729 245.687 34.1496 245.687 30.9088C245.687 27.7435 243.765 25.5579 240.562 25.5579C237.509 25.5579 235.55 27.8565 235.55 30.9088Z" fill="#282834"/>
<path d="M253.497 49.3735V45.5298H256.248C258.056 45.5298 259.187 45.1153 259.978 42.9297L260.506 41.5354L253.007 22.1287H257.868L262.654 35.6946L267.703 22.1287H272.451L263.332 44.8892C261.938 48.3561 259.978 49.788 256.926 49.788C255.645 49.788 254.514 49.6373 253.497 49.3735Z" fill="#282834"/>
<defs>
<linearGradient id="paint0_linear_897_2454" x1="57.9741" y1="4.60971" x2="8.07717" y2="45.1272" gradientUnits="userSpaceOnUse">
<stop stop-color="#B453DF"/>
<stop offset="1" stop-color="#761FC5"/>
</linearGradient>
</defs>
</svg>
